<svg width="80" height="80" viewBox="0 0 80 80" fill="none" xmlns="http://www.w3.org/2000/svg">
<rect width="80" height="80" rx="6" fill="#BBD5DB"/>
<path d="M30.5 32C30.5 31.337 30.7634 30.7011 31.2322 30.2322C31.7011 29.7634 32.337 29.5 33 29.5C33.663 29.5 34.2989 29.7634 34.7678 30.2322C35.2366 30.7011 35.5 31.337 35.5 32C35.5 32.663 35.2366 33.2989 34.7678 33.7678C34.2989 34.2366 33.663 34.5 33 34.5C32.337 34.5 31.7011 34.2366 31.2322 33.7678C30.7634 33.2989 30.5 32.663 30.5 32Z" fill="#003C4C"/>
<path d="M34.734 20.5H45.266C47.45 20.5 49.182 20.5 50.576 20.614C52.004 20.73 53.21 20.974 54.314 21.534C56.1013 22.4457 57.554 23.8998 58.464 25.688C59.026 26.788 59.27 27.996 59.386 29.424C59.5 30.818 59.5 32.55 59.5 34.734V45.266C59.5 47.45 59.5 49.182 59.386 50.576C59.27 52.004 59.026 53.21 58.466 54.314C57.5548 56.101 56.1014 57.5537 54.314 58.464C53.21 59.026 52.004 59.27 50.576 59.386C49.182 59.5 47.45 59.5 45.266 59.5H34.734C32.55 59.5 30.818 59.5 29.424 59.386C27.996 59.27 26.79 59.026 25.688 58.466C23.9003 57.5552 22.4468 56.1017 21.536 54.314C20.974 53.21 20.73 52.004 20.616 50.576C20.5 49.182 20.5 47.45 20.5 45.266V34.734C20.5 32.55 20.5 30.818 20.614 29.424C20.73 27.996 20.974 26.79 21.534 25.688C22.4453 23.9 23.8995 22.4465 25.688 21.536C26.788 20.974 27.996 20.73 29.424 20.614C30.818 20.5 32.55 20.5 34.734 20.5ZM23.5 43.506V45.2C23.5 47.466 23.5 49.074 23.604 50.332C23.704 51.572 23.898 52.342 24.208 52.952C24.8311 54.1747 25.8253 55.1689 27.048 55.792C27.658 56.102 28.428 56.294 29.668 56.396C30.446 56.46 31.358 56.484 32.476 56.494C32.384 53.71 32.81 51.074 33.662 48.654C31.422 45.442 27.7 43.372 23.5 43.506ZM56.502 37.338C44.776 36.352 35.048 45.086 35.48 56.5H45.2C47.466 56.5 49.074 56.5 50.332 56.396C51.572 56.296 52.342 56.102 52.952 55.792C54.1747 55.1689 55.1689 54.1747 55.792 52.952C56.102 52.342 56.294 51.572 56.396 50.332C56.5 49.072 56.5 47.464 56.5 45.2L56.502 37.338ZM27.5 32C27.5 33.4587 28.0795 34.8576 29.1109 35.8891C30.1424 36.9205 31.5413 37.5 33 37.5C34.4587 37.5 35.8576 36.9205 36.8891 35.8891C37.9205 34.8576 38.5 33.4587 38.5 32C38.5 30.5413 37.9205 29.1424 36.8891 28.1109C35.8576 27.0795 34.4587 26.5 33 26.5C31.5413 26.5 30.1424 27.0795 29.1109 28.1109C28.0795 29.1424 27.5 30.5413 27.5 32ZM30.5 32C30.5 31.337 30.7634 30.7011 31.2322 30.2322C31.7011 29.7634 32.337 29.5 33 29.5C33.663 29.5 34.2989 29.7634 34.7678 30.2322C35.2366 30.7011 35.5 31.337 35.5 32C35.5 32.663 35.2366 33.2989 34.7678 33.7678C34.2989 34.2366 33.663 34.5 33 34.5C32.337 34.5 31.7011 34.2366 31.2322 33.7678C30.7634 33.2989 30.5 32.663 30.5 32Z" fill="#003C4C"/>
</svg>
