<svg width="17" height="16" viewBox="0 0 17 16" fill="none" xmlns="http://www.w3.org/2000/svg">
<g clip-path="url(#clip0_8_7302)">
<path d="M8.76874 0.850098C9.1214 0.850098 9.46657 0.951832 9.76288 1.14307L14.4299 4.15674L14.6144 4.29248C14.7892 4.43921 14.9353 4.61828 15.0451 4.81982C15.1915 5.08861 15.2686 5.38971 15.2687 5.6958V6.3335C15.2687 6.73127 15.1106 7.11277 14.8293 7.39404C14.5877 7.63563 14.272 7.78506 13.9357 7.82275V10.8335H14.1017C14.4112 10.8335 14.7081 10.9565 14.9269 11.1753L15.0041 11.2603C15.1744 11.4679 15.2687 11.7296 15.2687 12.0005C15.2686 12.3097 15.1456 12.606 14.9269 12.8247C14.7081 13.0435 14.4112 13.1665 14.1017 13.1665H3.43573C3.16518 13.1665 2.904 13.0727 2.69647 12.9028L2.61053 12.8247C2.39191 12.606 2.26886 12.3097 2.26874 12.0005C2.26874 11.6911 2.39179 11.3941 2.61053 11.1753L2.69647 11.0972C2.904 10.9273 3.16519 10.8335 3.43573 10.8335H3.60175V7.82275C3.26545 7.78506 2.94981 7.63563 2.70819 7.39404C2.42692 7.11277 2.26877 6.73127 2.26874 6.3335V5.69678L2.28339 5.46826C2.31186 5.24165 2.38249 5.02157 2.49237 4.81982L2.61346 4.62646C2.7469 4.44089 2.91447 4.28146 3.1076 4.15674L7.7746 1.14307L7.88788 1.07568C8.15729 0.928074 8.46012 0.850098 8.76874 0.850098Z" stroke="#9A9EA1"/>
<path d="M14.769 12.8334C15.0783 12.8335 15.3746 12.9566 15.5933 13.1752L15.6714 13.2611C15.8413 13.4687 15.9351 13.7298 15.9351 14.0004C15.935 14.271 15.8414 14.5321 15.6714 14.7396L15.5933 14.8246C15.3745 15.0433 15.0783 15.1663 14.769 15.1664H2.76904C2.49846 15.1664 2.23733 15.0726 2.02979 14.9027L1.94385 14.8246C1.72523 14.6059 1.60214 14.3096 1.60205 14.0004L1.60791 13.8851C1.63435 13.6179 1.75231 13.3667 1.94385 13.1752L2.02979 13.098C2.23738 12.9279 2.49833 12.8334 2.76904 12.8334H14.769Z" stroke="#9A9EA1"/>
</g>
<defs>
<clipPath id="clip0_8_7302">
<rect width="16" height="16" fill="white" transform="translate(0.768738)"/>
</clipPath>
</defs>
</svg>
