<svg width="77" height="86" viewBox="0 0 77 86" fill="none" xmlns="http://www.w3.org/2000/svg">
<path d="M35.6319 3.0203C35.7882 3.06087 35.9444 3.10445 36.1323 3.15704C36.006 3.20663 35.9159 3.2442 35.8197 3.27575C35.4591 3.38695 35.2111 3.64089 35.0188 3.96997C34.8114 4.24195 34.7093 4.56802 34.6311 4.93016C35.0999 4.49139 35.6108 4.20138 36.2855 4.22842C36.1518 4.35615 36.0196 4.41776 35.9504 4.556C35.8002 4.72129 35.695 4.91212 35.6785 5.14804C35.5507 5.54624 35.5658 5.94894 35.6499 6.35315C35.728 5.93242 35.9159 5.56878 36.1818 5.24871C36.3271 5.14453 36.4729 5.03985 36.6191 4.93466C36.6612 4.90611 36.7183 4.88207 36.7468 4.92264C36.7604 4.94668 36.7318 5.00829 36.7243 5.05487C36.6356 5.20514 36.5755 5.36592 36.574 5.54624C36.4959 5.86029 36.5019 6.16983 36.58 6.48388C36.6131 6.74835 36.6882 7.0038 36.852 7.2352V6.62814C36.8701 6.2675 37.0353 5.96097 37.1916 5.64992C37.3133 5.55826 37.3644 5.38095 37.5598 5.32535V5.83925C37.5132 6.79343 37.5237 7.7446 37.5297 8.69276L37.5282 9.43807C37.5262 9.74962 37.5247 10.0627 37.5237 10.3772C37.5237 10.5896 37.5227 10.802 37.5207 11.0143C37.5012 11.2788 37.4936 11.5403 37.5177 11.8062C37.706 11.8042 37.8944 11.8032 38.0827 11.8032L38.1037 11.8062H38.1248C38.1348 11.3254 38.1207 10.849 38.0827 10.3772L38.0767 9.6845C38.0827 9.23972 38.0827 8.79795 38.0406 8.35166C38.0366 8.04112 38.0331 7.72907 38.0301 7.41552C38.0406 6.8896 38.0241 6.36818 37.9895 5.83925V5.2968C38.2705 5.39898 38.3727 5.6379 38.5079 5.83925C38.6342 6.22393 38.7378 6.61461 38.7964 7.03836C38.9121 6.91514 38.9407 6.79794 38.9662 6.67923C39.0293 6.3817 39.0053 6.08568 38.9392 5.78966C38.9392 5.56126 38.858 5.3554 38.7859 5.14954C38.8175 5.07591 38.858 5.11799 38.8926 5.14804C39.0018 5.24621 39.1095 5.34789 39.2157 5.45307C39.4801 5.92039 39.5628 6.43129 39.5673 6.96623C39.8303 6.42077 39.7371 5.88283 39.5402 5.34789C39.4666 5.08493 39.3689 4.8385 39.2217 4.60859C39.2232 4.51843 39.1195 4.46734 39.139 4.36066C39.4411 4.36216 39.6214 4.59056 39.8272 4.75735C40.0316 5.03083 40.2405 5.30582 40.4313 5.66044C40.5049 5.25773 40.4839 4.93917 40.3051 4.65067C40.1443 4.32459 39.9144 4.07065 39.6034 3.90536C39.5778 3.8738 39.5312 3.84375 39.5372 3.8167C39.5432 3.76711 39.6019 3.77463 39.6349 3.78515C39.8828 3.82572 40.0842 3.96396 40.2825 4.11272C40.535 4.29755 40.7604 4.51843 41.0188 4.76487C41.0639 4.14728 40.8956 3.67696 40.4523 3.32083C40.277 3.14051 40.0707 3.01129 39.8333 2.93315C40.0511 2.72579 40.3096 2.76936 40.562 2.80993C40.8415 2.85201 41.0789 3.01129 41.3659 3.17958C41.2307 2.74231 41.0324 2.43277 40.6732 2.24344C40.3351 2.01203 39.9505 1.94291 39.5568 1.95193C39.3464 1.95794 39.3133 1.88882 39.3795 1.707C39.6229 1.23367 40.0346 0.95117 40.4899 0.673182C39.7326 0.411722 39.2247 0.833964 38.7093 1.31781C38.6717 0.79189 38.8295 0.383172 39.2037 0C38.4689 0.0961685 38.0902 0.589034 37.719 1.10744C37.6018 0.904589 37.5492 0.671679 37.3825 0.515405C37.0714 0.0991745 36.5635 -0.109693 36.2404 0.0616083C36.4448 0.180317 36.541 0.38768 36.6657 0.574007C36.7604 0.921117 36.8595 1.26672 36.8024 1.64539C36.4388 1.35087 35.976 1.15252 35.6499 1.15252C35.5042 1.09092 35.3569 1.12097 35.2111 1.12548C35.1751 1.12548 35.139 1.13449 35.1676 1.17657C35.1826 1.1976 35.2247 1.20211 35.2532 1.21413C35.5042 1.34486 35.7175 1.53419 35.9399 1.707C36.0782 1.91887 36.275 2.08416 36.3426 2.33961C36.2975 2.33811 36.248 2.33961 36.2059 2.32458C35.3629 1.95193 34.6657 2.29753 34.2164 2.93315C34.0947 3.07139 34.0045 3.22917 33.9023 3.4726C34.296 3.20663 34.6702 3.07891 35.0684 3.0203H35.6319Z" fill="#C1A02E"/>
<path d="M74.6886 49.5014L74.7487 49.6201L74.5218 48.6043L74.5955 48.5622C74.3205 46.8883 74.026 45.2774 73.7405 43.6952C73.7329 42.7425 73.7254 41.8048 73.7149 40.8567L73.7825 40.9904C73.6593 38.5622 73.7855 38.5381 73.7329 35.9686L73.7585 36.1399C73.7825 29.62 73.6683 30.1564 73.6142 23.6905C73.6188 23.7912 73.6443 23.8258 73.6518 23.931C73.6248 23.6184 73.5812 23.2713 73.5842 22.9182C73.6007 22.8295 73.6172 23.0204 73.6248 23.1346C73.6638 22.6898 73.6698 22.1083 73.6638 21.5027C73.6518 20.9107 73.5677 20.0076 73.5602 19.4606C73.0583 19.4726 72.627 19.5177 72.3595 19.4817C71.9989 19.4937 71.8426 19.5478 72.0395 19.5868C67.2821 19.6154 62.8193 19.4441 57.9718 19.5433C57.7374 19.5282 56.98 19.5433 57.0447 19.5012C52.9004 19.7055 42.415 19.2022 38.1745 19.1691C38.0152 19.2202 38.0423 19.5117 37.9837 19.5117C39.3496 19.5117 44.5878 19.4801 45.8214 19.5793L45.6622 19.6274C46.5638 19.662 45.871 19.5974 46.8057 19.6635C47.1738 19.7055 46.6719 19.686 46.8417 19.6905C48.7546 19.6695 53.1002 19.7927 54.8989 19.668C55.3437 19.7792 56.8673 19.6034 57.5706 19.7085C58.0664 19.6665 58.6435 19.8062 58.8343 19.7296C61.2821 19.7341 63.7569 19.7491 66.2378 19.7521C68.6285 19.7386 70.9591 19.7025 73.3723 19.6905C73.3768 21.5343 73.4009 23.695 73.4039 25.5568C73.6082 28.9678 73.3693 30.3397 73.4369 34.3908C73.4279 34.4149 73.4204 34.4129 73.4144 34.3848C73.464 35.7056 73.4895 33.7958 73.4625 35.369L73.5481 35.3465C73.491 38.5682 73.4625 40.4209 73.4505 43.7177C73.8301 45.9917 74.2073 48.2677 74.5819 50.5457C74.1357 52.992 73.6759 55.3616 73.2025 57.7403L73.1755 58.7967C73.2461 59.6126 73.3873 60.5457 73.4715 61.3722C73.4595 61.4533 73.4399 61.4473 73.4399 61.267C73.461 62.4526 73.3408 62.2002 73.3618 63.3842C73.3423 63.3707 73.3423 63.3707 73.3257 63.1829C73.3798 64.2918 73.2281 67.9538 73.3227 69.2656L73.2882 69.3362L73.3363 64.9785C73.3002 64.962 73.2536 64.9334 73.2461 64.675C73.2371 67.7208 73.2461 70.5578 73.2671 73.6503C73.2912 76.7186 73.3167 78.4527 73.3408 81.5511C71.5266 81.5652 69.7099 81.5787 67.8907 81.5917L62.1702 81.5962L62.5308 81.5571L60.6284 81.6308C60.639 81.6082 60.7276 81.5962 60.8238 81.5887C58.397 81.5136 55.8816 81.6368 53.518 81.6172C53.5315 81.5962 53.8876 81.5571 53.5585 81.5316C51.8125 81.6518 50.7486 81.3798 49.8756 81.6233C49.7929 81.6142 49.7373 81.5571 49.9161 81.5361C47.4022 81.5782 46.4496 81.5962 43.853 81.6007C41.8966 82.0555 39.9406 82.5098 37.9852 82.9636C36.158 82.5669 34.2897 82.1647 32.3804 81.757C28.5546 81.7765 22.9783 81.7915 19.0805 81.8081L19.097 81.766C16.3622 81.8021 13.6665 81.7885 10.9783 81.7615L3.02031 81.6879L3.01129 77.8877C3.10145 70.5593 2.78439 68.4782 2.9046 61.0867C2.99326 58.998 2.95419 56.6103 2.9046 54.2257C2.48086 52.0093 2.05411 49.8049 1.75358 47.8274C1.90385 46.9634 2.04509 46.1024 2.15328 45.3496L2.17282 45.4803L2.29002 44.4435L2.36816 44.43C2.6176 42.9664 2.83097 41.5599 3.04435 40.1549C3.03082 38.9769 3.02031 39.1827 3.00979 38.0107L3.0774 38.1444C2.95419 35.7101 3.08041 38.1534 3.02631 35.5794L3.05186 35.7537C3.06538 32.5336 3.04134 32.1519 3.01129 29.0625C2.97523 25.955 2.94217 22.7228 2.90611 19.5117L3.19912 19.5102C3.09694 19.5222 3.0759 19.5433 2.97973 19.5493C3.134 19.5373 3.29379 19.5227 3.45908 19.5057C3.62136 19.4887 3.78365 19.4807 3.94593 19.4817C4.03459 19.4982 3.85577 19.5192 3.74909 19.5252C5.03685 19.6499 7.55977 19.4125 8.36519 19.5072C8.72582 19.4937 8.88811 19.4441 8.68826 19.402C13.4561 19.372 18.5335 19.5117 23.3916 19.417C23.6245 19.4351 24.1264 19.3614 24.0632 19.402C28.215 19.2037 33.5509 19.4381 37.7989 19.4726C37.9627 19.417 37.4743 19.2367 37.892 19.1781C37.4082 19.1601 32.9799 19.1856 32.5381 19.2052C32.5547 19.1105 32.762 18.0617 32.9994 17.2938C33.2834 16.3922 34.3909 14.0181 34.9544 13.9309L37.7358 19.4246L36.1865 22.4869C36.149 22.5606 36.1745 22.6492 36.2421 22.6928C36.3082 22.7289 36.3924 22.7003 36.43 22.6312L37.8965 19.7356L39.3646 22.6312C39.3992 22.7003 39.4848 22.7289 39.5524 22.6928C39.6186 22.6492 39.6426 22.5606 39.6065 22.4869L38.0543 19.4246L40.8402 13.9309C41.4037 14.0181 42.5096 16.3922 42.7921 17.2938C43.0416 18.0977 43.2564 19.2202 43.2564 19.2202C43.2564 19.2202 43.9507 18.1668 44.6088 17.0895C45.6231 17.112 45.8229 17.2277 46.6314 17.2803C46.6254 17.2788 46.6148 17.2743 46.6299 17.2698C47.2174 17.1601 50.4616 17.3374 50.9289 17.3554L51.1152 17.402C51.3992 17.5087 52.4766 17.2007 52.1175 17.378C54.5563 17.3329 57.3512 17.3344 60.074 17.3329C60.4556 17.2668 62.1596 17.3419 61.5646 17.2082C62.2498 17.3584 64.2738 17.399 65.0267 17.39C65.0011 17.4065 64.9696 17.42 64.8509 17.4155C66.3114 17.6079 66.5804 17.2367 67.9508 17.4741C68.1657 17.3073 70.4362 17.5282 71.213 17.3284C71.3833 17.3664 71.4374 17.4 71.3753 17.429L73.8141 17.4486C74.2188 17.4546 74.614 17.4596 74.9997 17.4636L75.5662 17.4726C75.6969 17.4741 75.6608 17.4741 75.6714 17.4756L75.6879 17.4801L75.6819 17.5012C75.6819 17.5993 75.6809 17.6965 75.6789 17.7927L75.6714 18.4914C75.6684 18.9317 75.6684 19.3389 75.6638 19.7266C75.8021 21.6184 75.6037 24.3171 75.7946 25.9445C75.7555 27.2969 75.6714 29.4802 75.7525 31.369L75.7285 31.1842C75.739 33.3104 75.748 33.2533 75.8667 34.7139C75.6864 35.3435 75.7209 34.9032 75.6608 35.8228C75.748 37.2428 75.7209 36.2736 75.8006 38.4419C75.7164 38.7725 75.8351 38.8717 75.7134 38.9829C75.7675 40.3398 75.8021 41.8184 75.8246 43.2684C75.5031 45.324 75.1259 47.5389 74.7292 49.7328C74.7162 49.6546 74.7027 49.5775 74.6886 49.5014ZM75.8847 58.4436L75.8667 61.2054C75.8382 66.0499 75.8156 67.6773 75.7886 72.2062V77.6277L75.8156 81.0417C75.8296 82.0976 75.8452 83.1604 75.8622 84.2303L72.7382 84.3115C72.7517 84.2904 72.6736 84.2799 72.929 84.2709C70.038 84.313 67.4038 84.2378 64.6811 84.2814L64.6901 84.2589C57.9327 84.4362 52.1761 84.2378 45.6622 84.4257H44.7711C42.8207 84.0034 40.7906 83.5677 38.702 83.1184L43.88 81.8922C47.6081 81.8742 49.9627 81.8577 53.7554 81.8396L53.7358 81.8817C57.0882 81.8366 60.3805 81.8697 63.6728 81.9072C65.3167 81.9223 66.9646 81.9388 68.6165 81.9568C69.4429 81.9578 70.2704 81.9603 71.0988 81.9644L73.7179 81.9508L73.7164 81.8216C73.7239 80.8749 73.7269 79.9132 73.7329 78.9546L73.7224 76.1476C73.6984 74.2723 73.6758 73.7404 73.6533 71.8456C73.5977 68.0589 73.5496 67.2175 73.6082 63.5135C73.7014 61.3572 73.6578 60.2407 73.6052 57.7824C73.9553 55.4789 74.2964 53.1903 74.6916 51.2023C75.0913 53.6111 75.4865 56.0288 75.8847 58.4436ZM36.8267 83.2311C35.4562 83.6353 33.9927 84.0079 32.5426 84.3565C29.7718 84.3731 25.3044 84.328 22.5501 84.4437L22.5696 84.4001C17.082 84.5549 11.2608 84.3896 5.57028 84.4167C4.61611 84.4212 3.78665 84.4212 2.96922 84.4257C2.16681 84.4317 1.37792 84.4392 0.494372 84.4497C0.491366 84.1116 0.488359 83.6744 0.488359 83.2145L0.539449 83.1469C0.341101 78.899 0.715257 75.5721 0.498877 71.1393L0.569502 71.4459C0.461312 70.7577 0.607068 71.4759 0.423746 71.7374L0.479342 70.9575C0.229904 67.9417 0.592044 65.7118 0.429759 62.0168L0.476338 62.2618C0.440275 61.2835 0.413228 61.4939 0.4538 60.7666C0.461313 60.8793 0.474836 60.8282 0.486857 61.0596C0.592041 59.2249 0.561989 57.249 0.527429 55.285C0.715258 53.9912 0.906093 52.6644 1.12247 51.3842L1.14051 51.7658C1.22616 50.9349 1.4245 49.7493 1.63788 48.5171C1.94291 50.4826 2.23593 52.451 2.49138 54.2632L2.46884 55.0236C2.53796 55.8455 2.68221 56.7726 2.76485 57.5991C2.74983 57.6817 2.7333 57.6742 2.7333 57.4939C2.75434 58.6735 2.63413 59.7779 2.65516 60.9575C2.63713 60.95 2.63713 60.95 2.62211 60.7576C2.67169 61.8666 2.52143 61.6878 2.6176 62.995L2.58454 63.0702L2.62661 63.9011C2.59506 63.8846 2.54698 63.8546 2.53796 63.5931C2.52894 67.258 2.54547 68.0093 2.57402 71.7359C2.60257 75.6142 2.63413 78.1567 2.66268 82.068L10.6823 82.0515L10.3261 82.0906L12.2225 82.0184C12.2134 82.0395 12.1218 82.0515 12.0331 82.0605C14.4509 82.1341 16.9558 82.0124 19.3149 82.029C19.3029 82.0515 18.9468 82.0921 19.2758 82.1161C21.0219 82.0019 22.0768 82.2694 22.9513 82.0215C23.0294 82.0335 23.0865 82.0906 22.9092 82.1101C25.5088 82.065 29.7357 82.0515 32.3533 82.05C33.9942 82.4096 35.6346 82.7683 37.2744 83.1259C37.1262 83.163 36.9769 83.198 36.8267 83.2311ZM1.54772 46.3398C1.2517 44.1324 0.925626 41.9236 0.583024 39.7718C0.646135 33.2804 0.501886 36.0798 0.366649 29.4952C0.389689 27.4096 0.396701 25.3264 0.387685 23.2458C0.374663 21.1311 0.359632 19.0213 0.342602 16.9167L5.97449 16.9031C7.80771 16.9071 9.6274 16.9377 11.4336 16.9948C14.9482 16.8415 18.8236 17.1811 22.7304 17.1375L22.5922 17.0864C23.9956 17.2442 25.7162 16.8626 26.5922 17.0985L26.4464 17.1075C27.1887 17.2277 28.0633 16.7123 28.5156 16.8565L28.6343 16.7979C29.5374 16.7799 28.741 16.8641 29.4337 16.8866C29.6966 16.8821 29.5374 16.7799 30.0783 16.8145C30.1985 17.0549 29.9551 16.7604 30.0182 17.0354C29.5268 17.0354 30.7891 17.1375 29.6831 17.1991C29.925 17.2187 30.8582 17.2157 31.2263 17.1601C31.8484 18.1744 32.4885 19.1406 32.5381 19.2157C31.7387 19.2472 31.0054 19.1541 30.212 19.0925L30.3683 19.0474C29.4667 19.0158 30.185 19.1571 29.2489 19.0925C28.8822 19.0489 29.342 19.0279 29.1737 19.0233C27.2549 19.0444 27.7868 18.9662 25.9806 19.0925C25.5343 18.9813 23.8829 19.1977 23.1737 19.0925C22.6793 19.1345 22.1819 19.0579 21.9911 19.1345C18.8791 19.1075 15.647 19.1 12.4854 19.112C9.24123 19.127 5.97449 19.2502 2.70024 19.2653V21.2923C2.9016 24.7108 2.66268 26.0918 2.7303 30.1534C2.72278 30.1789 2.71226 32.8897 2.70776 32.8626C2.75734 34.1865 2.78289 33.4006 2.75434 34.9799L2.84149 34.9618C2.78139 38.3818 2.75434 36.6824 2.74683 40.1279C2.36816 42.3728 1.99701 44.6268 1.61985 46.8823C1.5938 46.6999 1.56976 46.5191 1.54772 46.3398ZM76.2454 43.3105C76.304 36.8266 76.1597 37.0084 76.026 30.4734C76.0605 27.7627 76.056 27.7717 76.038 25.0745C76.023 22.4223 76.0049 19.7777 75.9884 17.1571L72.3069 17.1435C71.0447 17.1285 69.79 17.1015 68.5428 17.0624C65.0207 17.2157 61.1303 16.8761 57.2145 16.9212L57.3542 16.9737C55.9477 16.813 54.2227 17.1946 53.3452 16.9572L53.4939 16.9467C52.7471 16.8265 51.7629 17.2322 51.3136 17.088L51.1889 17.1481C50.2873 17.1631 51.0837 17.0819 50.3865 17.0534C50.1235 17.0624 50.2873 17.1631 49.7403 17.13C49.6231 16.8866 45.1017 17.0714 45.0401 16.7979C45.5329 16.7979 44.2662 16.6943 45.3722 16.6342C45.285 16.6281 45.1062 16.6236 44.8928 16.6236C44.9274 16.5665 44.9649 16.5079 44.9935 16.4523C45.9537 14.8295 44.9409 13.2367 44.9409 13.2367L42.9138 9.83923L43.3015 9.09992L43.4187 9.16755C43.5149 9.22314 43.6336 9.18257 43.6832 9.08189C43.7343 8.98122 43.6982 8.858 43.6036 8.80391L43.1167 8.52141C43.025 8.47032 42.9063 8.50939 42.8537 8.61007C42.8041 8.70924 42.8402 8.83396 42.9334 8.88956L43.0506 8.95417L37.8965 19.109L32.7425 8.95417L32.8612 8.88956C32.9574 8.83396 32.9949 8.70924 32.9438 8.61007C32.8912 8.50939 32.774 8.47032 32.6794 8.52141L32.194 8.80391C32.0979 8.858 32.0618 8.98122 32.1144 9.08189C32.1655 9.18257 32.2827 9.22314 32.3788 9.16755L32.4946 9.09992L32.8792 9.83923L30.8492 13.2367C30.8492 13.2367 29.8379 14.8295 30.7981 16.4523C30.8732 16.5816 30.9508 16.7113 31.031 16.8415L30.9904 16.8596C30.6794 16.7679 30.756 16.8175 30.6448 16.7499C29.4457 16.7363 29.2849 16.6071 28.4269 16.55C28.4359 16.553 28.4464 16.5545 28.4329 16.5635C27.8484 16.6687 29.36 16.6026 28.8957 16.5906L28.7109 16.5395C28.4239 16.4373 27.348 16.7439 27.7117 16.5635C25.2774 16.6086 22.5967 16.7213 19.8769 16.7213C19.4982 16.7874 17.7987 16.7153 18.3923 16.846C17.7116 16.6988 15.686 16.6582 14.9362 16.6627C14.9678 16.6507 14.9978 16.6357 15.1165 16.6417C13.656 16.4478 13.3885 16.8205 12.0196 16.5831C11.8107 16.7499 9.54326 16.5305 8.7694 16.7258C8.6011 16.6928 8.5425 16.6552 8.60411 16.6281C6.1488 16.6011 3.43353 16.574 1.35238 16.553L0.915108 16.5831C0.632612 16.5891 0.343605 16.5951 0.0480867 16.6011C0.0480867 17.1781 0.0495917 17.7837 0.0540996 18.3967L0.045083 19.7972C0.0405751 20.7168 0.0495889 21.5899 0.132234 22.269C0.0946681 23.6184 0.0135266 25.7987 0.0886585 27.677L0.0661199 27.4967C0.0766383 29.6154 0.0871537 29.5538 0.207365 31.0099C0.0255456 31.638 0.0586029 32.5531 0 33.4712C0.087153 34.8867 0.0601098 33.9115 0.138247 36.0753C0.0540993 36.4044 0.172805 36.5005 0.0495885 36.6132C0.106689 38.0588 0.147264 38.1835 0.1683 39.8123C0.607071 42.1955 1.01729 44.6103 1.40948 47.0716L1.49513 47.6246L0.222394 55.255L0.207365 58.4045C0.15327 69.3767 0.00902037 73.3212 0.273485 84.0034C0.256956 83.9884 0.244932 84.0771 0.235916 83.8021L0.244933 84.7157L4.30806 84.7187C5.56577 84.7277 6.80695 84.7322 8.06616 84.7082L8.05865 84.7322C14.8295 84.5564 23.7026 84.7547 30.2316 84.5654L32.5667 84.5699L37.9897 83.2837C38.3273 83.3598 38.6629 83.4344 38.9965 83.5076C40.8537 83.8066 42.7696 84.2033 44.7531 84.6315C47.1272 84.6315 47.9357 84.6451 50.2317 84.5489L50.2092 84.594C55.6848 84.4392 61.4925 84.603 67.1664 84.5744C69.5226 84.5895 71.1169 84.5384 73.482 84.5339L73.5421 84.5895C74.3941 84.5489 75.2085 84.5309 76.1417 84.5309C76.1357 80.9997 76.328 78.7577 76.1597 75.2536L76.2288 75.5571C76.1206 74.8719 76.2679 72.8824 76.0846 73.1454L76.1387 72.3625C75.8937 69.3572 76.2544 72.3234 76.0921 68.6375L76.1387 68.8839C76.1011 67.9057 76.0771 64.2843 76.1146 63.557C76.1252 63.6742 76.1387 63.6201 76.1447 63.8516C76.2709 61.6983 76.2123 60.7396 76.1672 58.418C75.9884 57.4428 75.8141 56.4901 75.6578 55.5359L75.7976 55.8831C75.497 54.5803 75.174 52.3128 74.8509 50.421L74.9245 50.0859C75.3964 47.8139 75.8306 45.581 76.2454 43.3105Z" fill="#C1A02E"/>
<path d="M28.4271 16.3352C28.4015 16.3171 28.2182 16.3217 28.119 16.3171L28.4271 16.3352Z" fill="#003C4C"/>
<path d="M34.293 67.56C34.1577 67.3331 34.0135 67.0912 33.767 66.6614C33.5477 67.1693 33.4034 67.5359 33.2351 67.8906C33.1419 68.0904 33.0277 68.3909 32.8805 68.4225C32.7137 68.4631 32.4402 68.3008 32.302 68.1445C31.5522 67.285 31.441 67.261 30.5619 67.9732C30.3355 68.1565 30.1151 68.3449 29.9008 68.5382C28.5123 69.7794 26.9901 70.7441 25.1404 71.0386C24.9526 71.0701 24.7813 71.1934 24.4372 71.3511C24.7993 71.4759 24.9841 71.578 25.1795 71.6051C26.6656 71.8064 28.048 71.6261 29.175 70.4375C29.456 70.1445 29.8181 69.9311 30.1307 69.6622C30.6401 69.2114 31.0728 69.2444 31.5416 69.7704C32.1893 70.5142 32.625 70.4736 33.3238 69.7644C33.5101 69.5765 33.7836 69.4488 34.039 69.3812C35.0999 69.0957 36.1006 67.1648 35.6468 65.9987C35.0398 66.4435 35.2937 67.6081 34.293 67.56Z" fill="#003C4C"/>
<path d="M41.7456 69.7404C41.6524 70.6735 41.962 71.1183 42.85 71.0717C45.086 70.9455 46.5615 69.5856 47.6825 67.7073C47.9139 67.3242 48.0326 66.8673 48.2024 66.4451C44.1784 68.959 44.1213 68.9831 42.9763 68.5308C43.4586 67.817 43.9935 67.1513 44.3842 66.4015C44.6998 65.7945 44.9763 65.1002 45.0319 64.4271C45.1085 63.5135 44.5285 63.1588 43.6945 63.4368C42.3361 63.8906 41.7741 64.7862 41.8748 66.2978C42.3992 66.0364 42.9432 65.7704 43.4917 65.5015C43.5427 65.5866 43.5958 65.6728 43.6509 65.7599C43.4391 66.0679 43.2557 66.4 43.0123 66.6795C42.255 67.5526 41.8628 68.5713 41.7456 69.7404Z" fill="#003C4C"/>
<path d="M31.8924 27.6395C32.25 27.3194 32.543 26.9182 32.8661 26.5486C33.5693 26.9618 33.945 26.9558 34.4469 26.5125C35.3139 25.7461 35.8774 23.5388 35.4491 22.1488C35.2433 22.4659 35.0539 22.6672 34.9713 22.9137C34.8451 23.2953 34.8345 23.7146 34.6918 24.0872C34.6212 24.2811 34.3852 24.4028 34.223 24.5591C34.1028 24.3772 33.9345 24.2059 33.8743 24.0031C33.7917 23.7026 33.7887 23.378 33.7496 23.0639L33.5227 23.0068C33.398 23.2578 33.2477 23.4997 33.1471 23.7597C33.0073 24.1323 32.9908 24.6117 32.7519 24.8776C32.4679 25.1932 31.99 25.5012 31.6144 25.4817C31.3875 25.4682 31.1065 24.8521 31.0013 24.4629C30.8961 24.0647 30.9803 23.6139 30.9803 23.1856C30.3477 24.3983 29.9404 25.677 30.1178 27.0579C30.2214 27.8739 31.2643 28.1984 31.8924 27.6395Z" fill="#003C4C"/>
<path d="M30.3037 31.7447C33.7162 30.7439 37.1467 29.8664 40.5757 29.3119C42.0498 29.0745 43.0596 28.493 43.8259 27.3329L43.859 27.2548C43.5885 27.1316 43.3315 27.2443 43.0926 27.2818C39.3856 27.916 35.6921 28.7935 31.9971 29.7176C30.9288 29.9866 30.236 30.3998 29.8995 31.3405C29.8424 31.5013 29.5899 31.6726 29.7041 31.8228C29.8514 32.0182 30.1143 31.8018 30.3037 31.7447Z" fill="#003C4C"/>
<path d="M36.2098 63.1243C35.9409 62.9996 35.6854 63.1108 35.445 63.1543C31.7395 63.7854 28.046 64.66 24.3495 65.5871C23.2811 65.8561 22.5854 66.2663 22.2533 67.2069C22.1947 67.3692 21.9423 67.5405 22.055 67.6923C22.2037 67.8861 22.4682 67.6652 22.6545 67.6127C26.0685 66.6164 29.499 65.7329 32.9281 65.1799C34.4007 64.9455 35.4104 64.3609 36.1813 63.2024C36.1918 63.1844 36.1963 63.1603 36.2098 63.1243Z" fill="#003C4C"/>
<path d="M62.8509 45.4623C62.9847 45.596 63.0312 45.4232 63.0974 45.3736C64.316 44.454 65.5797 43.617 66.9561 43.0205C67.5527 42.762 67.8141 42.2827 67.7706 41.4081C67.7686 41.3941 67.7645 41.3746 67.7585 41.3495C67.5932 41.2819 67.5136 41.3721 67.4189 41.4142C65.9449 42.0933 64.5579 42.9393 63.1845 43.8244C62.7878 44.0768 62.6105 44.4134 62.7773 45.1061C62.8058 45.2279 62.7487 45.3631 62.8509 45.4623Z" fill="#003C4C"/>
<path d="M53.1193 46.9242C53.1073 46.8912 53.1674 46.7965 53.211 46.783C53.4905 46.6868 53.6828 46.8506 53.8526 47.052C53.9172 47.1271 53.9578 47.2233 54.0855 47.4412L53.6437 47.3149C53.4228 47.2473 53.202 47.1797 53.1193 46.9242ZM53.0878 49.1707C52.2312 49.925 51.3657 50.6688 50.4506 51.4637C51.9548 51.4352 52.9014 50.8957 53.7579 49.6545C53.9037 49.4502 53.9518 48.9228 54.4206 49.2413C54.5739 49.345 54.7331 49.5509 54.8729 49.2623C55.0186 48.9573 55.4739 48.6808 55.1524 48.3022C54.8053 47.8934 54.7932 47.5163 54.912 47.0204C55.0547 46.4269 54.6295 45.7026 54.084 45.4892C53.4649 45.2473 53.0953 45.6365 52.8053 46.1218C52.6385 46.3953 52.5002 46.6913 52.3815 46.9919C52.0449 47.8153 52.1937 48.2541 53.0111 48.5741C53.5145 48.7695 53.3402 48.9498 53.0878 49.1707Z" fill="#003C4C"/>
<path d="M55.0387 24.1249C55.0267 24.0903 55.0838 23.9971 55.1289 23.9821C55.4084 23.8874 55.6022 24.0542 55.772 24.2511C55.8366 24.3277 55.8757 24.4284 56.0019 24.6418L55.5617 24.5155C55.3423 24.4494 55.1199 24.3818 55.0387 24.1249ZM55.0057 26.3743C54.1492 27.1271 53.2852 27.8724 52.3716 28.6643C53.8742 28.6388 54.8224 28.0963 55.6789 26.8551C55.8216 26.6508 55.8712 26.1264 56.3385 26.4419C56.4948 26.5471 56.6511 26.753 56.7908 26.463C56.9366 26.1594 57.3934 25.8829 57.0733 25.5028C56.7232 25.0941 56.7127 24.7169 56.8284 24.221C56.9741 23.629 56.5474 22.9047 56.0019 22.6898C55.3828 22.4479 55.0147 22.8356 54.7232 23.3254C54.5564 23.5974 54.4181 23.8919 54.2979 24.194C53.9643 25.0189 54.1131 25.4577 54.9305 25.7778C55.4339 25.9716 55.2581 26.1519 55.0057 26.3743Z" fill="#003C4C"/>
<path d="M8.15752 28.6507C8.81267 28.789 9.57751 28.4253 10.0463 27.7371C10.2317 27.4617 10.4 27.1792 10.5512 26.8896C10.6504 26.7003 10.9675 26.4779 10.715 26.2961C10.4085 26.0737 10.2732 26.4223 10.0989 26.5561C9.76083 26.8115 9.38968 26.8851 8.98998 26.7093C8.62183 26.547 8.61582 26.2465 8.64588 25.943C8.72101 25.1766 9.92312 23.5282 10.736 22.9963C10.8893 22.8956 11.0696 22.7679 10.9119 22.6146C10.7285 22.4418 8.90433 23.9159 7.87502 25.1646C7.4092 25.7326 7.10417 26.3532 7.11919 27.0579C7.09816 27.919 7.48434 28.5095 8.15752 28.6507Z" fill="#003C4C"/>
<path d="M46.8451 28.3848C47.5003 28.5245 48.2636 28.1594 48.7324 27.4712C48.9173 27.1962 49.0916 26.9137 49.2403 26.6237C49.3395 26.4343 49.6536 26.212 49.4026 26.0286C49.0946 25.8047 48.9623 26.1564 48.7865 26.2901C48.4469 26.5455 48.0773 26.6222 47.6746 26.4449C47.3094 26.2826 47.3019 25.9836 47.332 25.677C47.4086 24.9092 48.6107 23.2593 49.4237 22.7333C49.5784 22.6312 49.7557 22.5019 49.5965 22.3502C49.4176 22.1729 47.5934 23.65 46.5596 24.9001C46.0968 25.4666 45.7933 26.0887 45.8053 26.7935C45.7858 27.6515 46.1719 28.242 46.8451 28.3848Z" fill="#003C4C"/>
<path d="M56.4723 64.0033C56.624 63.9026 56.8074 63.7734 56.6466 63.6201C56.4663 63.4473 54.6421 64.9229 53.6097 66.1701C53.1439 66.7396 52.8434 67.3602 52.8524 68.0649C52.8314 68.9259 53.2176 69.5165 53.8922 69.6562C54.5504 69.796 55.3122 69.4308 55.7811 68.7441C55.9664 68.4666 56.1347 68.1841 56.2859 67.8966C56.3866 67.7028 56.7037 67.4819 56.4497 67.3001C56.1462 67.0777 56.011 67.4263 55.8321 67.563C55.494 67.817 55.1244 67.8906 54.7247 67.7163C54.3535 67.5525 54.352 67.252 54.3806 66.9485C54.4572 66.1851 55.6578 64.5352 56.4723 64.0033Z" fill="#003C4C"/>
<path d="M63.5398 36.4119C63.1837 36.8461 62.9538 37.3225 62.9598 37.8649C62.9448 38.5231 63.2408 38.9769 63.7562 39.0836C64.2611 39.1917 64.8456 38.9138 65.2062 38.3848C65.3495 38.1745 65.4797 37.9581 65.5969 37.7357C65.6706 37.5869 65.9155 37.4186 65.7186 37.2774C65.4857 37.1061 65.3836 37.3751 65.2483 37.4757C64.9869 37.6741 64.7044 37.7342 64.3933 37.5944C64.1138 37.4712 64.1093 37.2413 64.1334 37.0069C64.189 36.4179 65.1116 35.1542 65.7352 34.7499C65.8554 34.6718 65.9921 34.5741 65.8704 34.4539C65.7307 34.3187 64.3302 35.4532 63.5398 36.4119Z" fill="#003C4C"/>
<path d="M66.0191 48.191C66.1739 48.0919 66.3542 47.9626 66.1935 47.8064C66.0131 47.6336 64.1874 49.1091 63.1566 50.3578C62.6908 50.9258 62.3903 51.5479 62.3978 52.2542C62.3798 53.1122 62.7674 53.7027 63.4391 53.8425C64.0973 53.9822 64.8606 53.6201 65.3294 52.9319C65.5178 52.6574 65.6856 52.3749 65.8328 52.0844C65.9365 51.8935 66.2521 51.6711 65.9966 51.4878C65.6931 51.2669 65.5563 51.614 65.382 51.7493C65.0439 52.0062 64.6698 52.0814 64.2716 51.9025C63.9019 51.7418 63.8974 51.4412 63.9305 51.1362C64.0056 50.3669 65.2047 48.72 66.0191 48.191Z" fill="#003C4C"/>
<path d="M8.15752 50.4525C8.81267 50.5892 9.57751 50.2256 10.0463 49.5404C10.2317 49.2639 10.4 48.9814 10.5512 48.6929C10.6504 48.5021 10.9675 48.2812 10.715 48.0964C10.4085 47.871 10.2732 48.2241 10.0989 48.3578C9.76083 48.6133 9.38968 48.6869 8.98998 48.5111C8.62183 48.3488 8.61582 48.0498 8.64588 47.7432C8.72101 46.9784 9.92312 45.327 10.736 44.7996C10.8893 44.6989 11.0696 44.5697 10.9119 44.4179C10.7285 44.2406 8.90433 45.7162 7.87502 46.9664C7.4092 47.5329 7.10417 48.1565 7.11919 48.8597C7.09816 49.7192 7.48434 50.3097 8.15752 50.4525Z" fill="#003C4C"/>
<path d="M69.474 72.2393C69.6257 72.1401 69.8075 72.0079 69.6468 71.8591C69.4664 71.6818 67.6407 73.1559 66.6084 74.4061C66.1426 74.9741 65.8421 75.5962 65.8541 76.3039C65.8346 77.1604 66.2207 77.7525 66.8924 77.8937C67.5506 78.0319 68.3139 77.6668 68.7842 76.9801C68.9706 76.7046 69.1374 76.4226 69.2846 76.1341C69.3883 75.9433 69.7024 75.7194 69.4499 75.5361C69.1464 75.3137 69.0081 75.6608 68.8353 75.8005C68.4957 76.053 68.1246 76.1296 67.7249 75.9508C67.3552 75.79 67.3507 75.4895 67.3808 75.186C67.4589 74.4196 68.6595 72.7712 69.474 72.2393Z" fill="#003C4C"/>
<path d="M67.2821 39.2504C67.0763 39.7507 67.4038 40.2872 67.775 40.2872C67.8321 40.2872 67.9974 40.1008 67.9974 40.1008C67.9974 40.1008 69.1394 38.8747 69.5466 36.8642C69.8922 35.1376 69.4038 23.8423 69.4038 23.8423C69.4038 23.8423 69.2626 22.6432 68.645 22.6432C68.2934 22.6432 67.5135 24.3848 67.1604 25.1C67.0702 25.2848 67.0252 25.5493 67.0357 25.8138C67.1319 27.7882 67.5451 36.2556 67.5932 36.8191C67.6322 37.2684 67.5661 38.5757 67.2821 39.2504Z" fill="#003C4C"/>
<path d="M24.833 34.2435C27.7992 33.0444 27.5453 36.4058 27.5453 36.4058H22.1192L24.833 34.2435ZM46.791 34.2435C49.7603 33.0444 49.5063 36.4058 49.5063 36.4058H44.0788L46.791 34.2435ZM7.1229 37.9956C6.95761 44.0061 11.3603 44.1173 14.4888 42.6087C16.6842 41.5523 17.9209 39.348 17.9209 39.348C18.3837 40.1519 18.845 40.2691 18.845 40.2691C18.845 40.2691 23.0794 40.2991 23.5512 40.2691C24.0246 40.239 24.4213 39.5088 24.4213 39.5088C24.3176 40.203 24.6782 40.2691 24.6782 40.2691C24.6782 40.2691 30.7068 40.2991 31.5904 40.2691C32.4709 40.239 32.5611 39.4021 32.5611 39.4021C32.5115 40.203 33.075 40.2991 33.075 40.2991H37.8338C38.6663 40.2991 38.7038 39.4021 38.7038 39.4021C38.7549 39.9911 39.2688 40.2991 39.2688 40.2991L40.3327 40.2781C40.0247 41.5012 39.933 42.3442 39.933 42.3442C41.0074 42.7169 41.2658 40.2991 41.2658 40.2991H47.921C51.1562 40.2991 53.6536 35.9265 52.6273 32.9873C51.9751 31.1195 51.7092 28.6131 46.8421 31.3945C44.6949 32.6237 43.8233 34.0301 41.8729 36.1729H40.2891C39.4191 35.6695 38.9608 32.0737 38.9608 32.0737C36.9157 32.8761 37.3214 36.3427 37.3214 36.3427H34.6077C33.661 36.23 33.3439 35.5177 33.2703 34.3697C33.1907 33.127 33.0224 32.813 33.0224 32.813C31.7421 33.6605 31.4356 36.3427 31.4356 36.3427H29.0314C31.8984 33.5508 27.0329 29.9865 25.3454 30.5816C23.6549 31.1796 19.4055 35.8709 19.4055 35.8709C17.8818 35.4035 17.7435 32.2164 17.6654 31.3945C17.5903 30.5741 16.8976 30.6883 16.8976 30.6883L15.156 34.0301L16.0786 37.9956C15.0027 39.3179 11.727 38.9212 11.727 38.9212C6.6105 38.1218 10.8089 32.0887 11.1139 31.3945C11.4204 30.7018 11.0117 30.6883 11.0117 30.6883C7.53011 32.5666 7.1229 37.9956 7.1229 37.9956Z" fill="#003C4C"/>
<path d="M32.0662 46.8958L34.0932 49.1152L37.127 46.4871L34.6657 43.9762L32.2029 46.1445L30.0752 43.9762L27.154 46.5442L29.5057 49.1152L32.0662 46.8958Z" fill="#003C4C"/>
<path d="M22.0478 25.8529C22.6389 25.908 23.2184 26.0031 23.7864 26.1384C23.4638 26.483 22.9464 26.8346 22.2342 27.1932C20.8507 27.9185 20.0108 28.4269 19.7142 28.7184C20.5036 28.7164 21.3065 28.7119 22.123 28.7049C23.256 28.2801 24.2728 27.5238 25.1733 26.4359C26.0749 25.353 26.6119 24.24 26.7842 23.097C25.9923 22.8551 25.1688 22.7003 24.3033 22.6162C22.971 22.489 21.7623 22.5736 20.6774 22.8701C20.4566 23.1106 20.0764 23.5012 19.5309 24.0302C18.8157 24.8055 18.4325 25.5383 18.3814 26.2285C19.4924 25.8519 20.7145 25.7266 22.0478 25.8529Z" fill="#003C4C"/>
<path d="M18.7181 49.7042C19.5085 49.6982 20.3099 49.6942 21.1223 49.6922C22.2583 49.2654 23.2766 48.5091 24.1772 47.4232C25.0788 46.3393 25.6162 45.2238 25.7895 44.0768C25.0001 43.8434 24.1737 43.6851 23.3102 43.602C21.9758 43.4747 20.7662 43.5589 19.6813 43.8544C19.4599 44.0978 19.0762 44.4845 18.5303 45.0144C17.817 45.7918 17.4353 46.5246 17.3853 47.2128C18.4942 46.8356 19.7204 46.7154 21.0487 46.8356C21.6417 46.8947 22.2217 46.9904 22.7887 47.1226C22.4702 47.4667 21.9488 47.8229 21.2335 48.1775C19.8511 48.9063 19.0141 49.4112 18.7181 49.7042Z" fill="#003C4C"/>
<path d="M12.1375 63.8875C16.2607 63.8605 17.5605 60.9634 17.5605 60.9634H24.8678C25.3607 60.9634 25.5786 59.7222 25.7363 60.3428C25.9016 60.9694 26.6214 60.7966 26.6214 60.7966C26.6214 60.7966 28.1751 60.9634 29.2916 60.7966C30.408 60.6328 30.4877 60.0333 30.4877 60.0333C30.6214 60.8537 31.3277 60.9634 31.3277 60.9634H33.5501C34.1256 60.9634 34.2833 59.9176 34.2833 59.9176C34.2563 60.9108 35.1233 60.9634 35.1233 60.9634H44.9356C46.8679 60.9634 46.6982 60.5126 47.161 59.5509C47.6208 58.5847 48.5449 58.5006 48.5449 58.5006C48.7072 60.4841 50.007 60.8237 50.007 60.8237H57.9604C57.9604 60.8237 58.2519 60.5998 59.2031 59.5209C60.1528 58.445 62.6757 60.2301 62.6757 60.2301L63.9484 56.9138C63.7065 55.8109 60.2339 53.7387 60.2339 53.7387V49.1241C60.2339 49.1241 61.8012 47.2083 62.1618 46.6899C62.5254 46.1684 62.1092 45.345 61.4841 45.354C60.566 45.3705 60.1528 44.6688 60.1528 44.6688C60.1528 44.6688 60.2489 43.7462 60.3421 43.0144C60.5915 41.0309 59.5577 42.0392 59.5577 42.0392C59.5577 42.0392 58.2489 43.7402 57.6539 44.505C56.4503 46.0633 57.9544 47.3405 57.9544 47.3405C57.9544 47.3405 57.9033 53.5689 57.9544 55.5825C58.01 57.596 57.2226 57.5359 57.2226 57.5359H52.0716C51.2541 57.5464 51.8807 57.046 51.8807 57.046H53.1294L53.8868 54.4765C52.584 54.2511 49.1039 53.2278 48.6155 52.7605C48.1257 52.2887 46.1317 49.8559 44.8244 50.6223C43.5261 51.3886 40.5914 54.4961 40.2699 54.8462C39.7845 55.4848 40.5358 55.9416 40.5358 55.9416C40.5358 55.9416 43.8777 53.5689 44.9897 54.167C46.1031 54.7605 47.0798 56.2061 47.0798 56.2061C46.6696 57.1152 44.9356 57.046 44.9356 57.046H40.2714C40.2714 57.046 36.1361 57.0295 35.8236 57.046C35.3683 57.0686 35.197 56.1339 35.197 56.1339L34.8453 54.2406L34.0309 53.046C34.0309 53.046 33.3442 53.1587 32.8093 54.5036L32.372 55.6035L32.656 57.2248C31.2976 57.0851 31.1639 54.9889 31.1639 54.9889L30.3509 53.3691C29.4013 53.626 28.9129 55.4983 28.9129 55.4983V57.1993C28.9129 57.1993 28.3584 57.1212 28.1075 56.8176C27.8536 56.5156 27.828 55.5254 27.828 55.5254L26.9324 53.5975C26.094 54.167 25.7108 55.7538 25.7108 55.7538V57.046H18.3238C17.7543 55.4878 16.423 53.049 16.0173 53.2293C15.3456 53.5223 14.6048 56.4615 14.6048 56.4615L15.9887 58.9829C11.2434 60.9213 9.58749 59.0671 8.63933 57.7673C7.69267 56.4615 9.75729 53.7943 9.69568 53.1166C9.6461 52.5742 9.26292 52.8897 9.26292 52.8897C3.53938 59.3496 8.01874 63.9176 12.1375 63.8875Z" fill="#003C4C"/>
<path d="M60.5557 27.5703L60.7675 34.7439C60.7675 34.7439 58.7149 35.7988 55.6946 36.9633C52.6743 38.1294 48.7374 44.8432 45.4106 45.9762C43.6765 46.5682 45.4106 41.9581 45.4106 41.9581C44.5931 43.1587 41.8148 46.5351 44.231 49.1077C47.1356 52.1986 52.0372 41.9701 56.1094 40.4419C61.3551 38.4795 61.597 37.2969 61.8945 36.7019C63.0906 34.2947 62.8322 29.3119 62.8322 29.3119C62.8322 29.3119 64.4009 27.4366 64.76 26.9362C65.1237 26.4223 64.7075 25.6199 64.0824 25.6334C63.1627 25.65 62.748 24.9633 62.748 24.9633C62.748 24.9633 62.8472 24.0602 62.9419 23.3494C63.1913 21.408 62.1545 22.3968 62.1545 22.3968C62.1545 22.3968 60.8487 24.0602 60.2551 24.8055C59.0485 26.3217 60.5557 27.5703 60.5557 27.5703Z" fill="#003C4C"/>
<path d="M10.7852 64.4962C9.7424 64.6254 6.19918 67.2114 7.83105 68.7682C9.22399 70.0965 10.3435 68.391 10.635 67.4068C10.662 67.3106 10.5328 67.252 10.4742 67.3361C10.2067 67.7163 9.80251 68.0319 9.39229 67.3557C8.69807 66.2017 10.7852 64.4962 10.7852 64.4962Z" fill="#003C4C"/>
<path d="M67.2821 60.7562C67.0763 61.2566 67.4038 61.7915 67.775 61.7915C67.8321 61.7915 67.9974 61.6082 67.9974 61.6082C67.9974 61.6082 69.1394 60.382 69.5466 58.3685C69.8922 56.6435 69.4038 45.3481 69.4038 45.3481C69.4038 45.3481 69.2626 44.146 68.645 44.146C68.2934 44.146 67.5135 45.8936 67.1604 46.6073C67.0702 46.7937 67.0252 47.0551 67.0357 47.3181C67.1319 49.2941 67.5451 57.7629 67.5932 58.3249C67.6322 58.7727 67.5661 60.08 67.2821 60.7562Z" fill="#003C4C"/>
<path d="M39.6872 50.2377L38.9884 49.9777C38.6443 49.847 38.6203 49.8244 38.5422 49.6922L38.5001 49.6276C38.4445 49.5404 38.3964 49.4683 38.4039 49.3586C38.4144 49.1437 38.5933 48.7981 38.6684 48.6524C38.6934 48.6604 38.715 48.6664 38.733 48.6704C38.8156 48.6749 38.8547 48.6178 38.8712 48.5923C38.8788 48.5908 38.9449 48.6103 39.0095 48.6434C39.2349 48.7846 39.8555 49.6967 39.8269 49.8515C39.8104 49.9777 39.7307 50.1475 39.6872 50.2377ZM40.5903 46.149C40.5903 46.149 40.4385 46.0709 40.3018 46.0393C40.0463 45.9792 38.8277 47.0987 38.4685 47.5675C38.2597 47.8395 38.0688 48.0618 37.9005 48.2572C37.3416 48.9078 37.005 49.2985 37.1657 50.3143C37.2424 50.8087 37.6225 51.2264 38.2116 51.4458C38.7721 51.6577 39.4227 51.6486 39.8615 51.4248C40.6879 51.0085 41.3852 49.6291 40.9945 48.735C40.7571 48.1896 40.1545 47.4728 39.9907 47.2805L40.6714 46.1911L40.5903 46.149Z" fill="#003C4C"/>
<path d="M69.6699 69.3272C69.6699 69.3272 69.8397 68.8539 69.4686 68.352C69.0959 67.8456 68.2619 68.352 68.2619 68.352C65.8111 69.4805 63.8111 71.4023 63.8111 71.4023C62.1477 71.7374 60.1402 69.0086 60.1402 69.0086C61.1439 66.932 65.724 67.6052 65.724 67.6052C65.9674 65.0341 63.736 64.1025 63.736 64.1025C61.2551 64.0063 59.2897 65.5661 57.9839 68.7937C56.6766 72.0154 59.1199 73.4189 59.1199 73.4189H53.1018C52.7848 73.4189 51.4159 72.3911 51.6247 70.7682C51.8321 69.1484 51.5301 68.7126 51.5301 68.7126C49.5421 70.4932 49.9944 73.4189 49.9944 73.4189H21.892C19.7177 73.4189 19.4758 73.3227 18.6734 72.2724C17.3255 70.5128 16.759 68.2408 16.3713 66.63C15.9852 65.0176 15.4051 65.7013 15.4051 65.7013C15.4051 65.7013 14.1189 68.0154 13.8559 68.6886C13.5884 69.3587 15.5704 73.3603 15.5704 73.3603H9.86791C8.23455 73.3603 8.42087 71.9869 8.48699 70.9455C8.55311 69.9042 7.48774 69.8396 7.48774 69.8396C7.48774 69.8396 7.16617 71.757 6.84761 74.4256C6.52455 77.0958 8.3803 77.5136 8.3803 77.5136H13.9446C14.4194 77.5136 15.1933 76.1492 15.1933 76.1492C15.5329 75.8907 16.3849 74.4872 16.3849 74.4872C17.3285 76.1867 19.0911 77.5136 19.0911 77.5136H49.9027L50.8839 76.4437C51.491 78.065 53.4099 77.5136 53.4099 77.5136C53.4099 77.5136 55.4745 77.47 58.2964 77.5136C61.1139 77.5526 62.2604 77.216 62.2604 77.216C64.3596 73.4369 67.7856 72.2949 68.3731 71.8561C68.9637 71.4234 69.6699 69.3272 69.6699 69.3272Z" fill="#003C4C"/>
<path d="M35.1775 83.6972C34.8807 83.4798 34.8162 83.063 35.0336 82.7662L37.198 79.81C37.4154 79.5131 37.8322 79.4487 38.129 79.666L41.0852 81.8305C41.3821 82.0478 41.4465 82.4646 41.2292 82.7615L39.0647 85.7177C38.8474 86.0145 38.4306 86.079 38.1337 85.8616L35.1775 83.6972Z" fill="#003C4C"/>
<path d="M10.1967 52.721C9.89986 52.5036 9.83541 52.0868 10.0528 51.7899L12.2172 48.8337C12.4345 48.5369 12.8514 48.4725 13.1482 48.6898L16.1044 50.8542C16.4012 51.0716 16.4657 51.4884 16.2484 51.7853L14.0839 54.7414C13.8666 55.0383 13.4497 55.1027 13.1529 54.8854L10.1967 52.721Z" fill="#003C4C"/>
</svg>
