<svg width="42" height="42" viewBox="0 0 42 42" fill="none" xmlns="http://www.w3.org/2000/svg">
<rect width="42" height="42" rx="2" fill="white"/>
<path d="M19.8719 3.45282C19.9425 3.47099 20.0131 3.4905 20.0979 3.51406C20.0409 3.53627 20.0002 3.55309 19.9567 3.56722C19.7939 3.61703 19.6819 3.73076 19.595 3.87815C19.5014 3.99996 19.4552 4.146 19.42 4.30819C19.6317 4.11168 19.8624 3.98179 20.1671 3.9939C20.1067 4.05111 20.047 4.0787 20.0158 4.14062C19.9479 4.21465 19.9004 4.30012 19.893 4.40578C19.8353 4.58412 19.8421 4.76448 19.8801 4.94552C19.9153 4.75708 20.0002 4.59422 20.1203 4.45087C20.1859 4.40421 20.2517 4.35732 20.3178 4.31021C20.3368 4.29742 20.3626 4.28666 20.3755 4.30483C20.3816 4.3156 20.3687 4.34319 20.3653 4.36405C20.3252 4.43135 20.2981 4.50336 20.2974 4.58412C20.2621 4.72478 20.2648 4.86341 20.3001 5.00407C20.3151 5.12252 20.349 5.23693 20.423 5.34057V5.06868C20.4311 4.90716 20.5057 4.76987 20.5763 4.63056C20.6313 4.5895 20.6544 4.51009 20.7426 4.48519V4.71535C20.7215 5.14271 20.7263 5.56871 20.729 5.99337L20.7283 6.32718C20.7274 6.46671 20.7268 6.60692 20.7263 6.7478C20.7263 6.84292 20.7258 6.93803 20.7249 7.03315C20.7161 7.1516 20.7127 7.2687 20.7236 7.38782C20.8086 7.38692 20.8937 7.38647 20.9787 7.38647L20.9882 7.38782H20.9977C21.0023 7.17246 20.9959 6.95912 20.9787 6.7478L20.976 6.43755C20.9787 6.23834 20.9787 6.04048 20.9597 5.8406C20.9579 5.70152 20.9564 5.56176 20.955 5.42133C20.9597 5.18578 20.9523 4.95225 20.9367 4.71535V4.4724C21.0636 4.51817 21.1097 4.62517 21.1708 4.71535C21.2278 4.88764 21.2746 5.06262 21.3011 5.2524C21.3533 5.19722 21.3662 5.14473 21.3778 5.09156C21.4063 4.95831 21.3954 4.82573 21.3656 4.69315C21.3656 4.59085 21.3289 4.49865 21.2963 4.40645C21.3106 4.37347 21.3289 4.39232 21.3445 4.40578C21.3938 4.44975 21.4425 4.49528 21.4904 4.54239C21.6099 4.7517 21.6472 4.98051 21.6492 5.2201C21.768 4.9758 21.7259 4.73487 21.637 4.49528C21.6038 4.37751 21.5596 4.26714 21.4931 4.16417C21.4938 4.12379 21.447 4.10091 21.4558 4.05313C21.5922 4.0538 21.6737 4.1561 21.7666 4.2308C21.8589 4.35328 21.9532 4.47644 22.0394 4.63527C22.0727 4.45491 22.0632 4.31223 21.9824 4.18302C21.9098 4.03698 21.806 3.92324 21.6655 3.84921C21.654 3.83508 21.6329 3.82162 21.6357 3.8095C21.6384 3.78729 21.6648 3.79066 21.6798 3.79537C21.7917 3.81354 21.8827 3.87546 21.9722 3.94208C22.0863 4.02486 22.188 4.12379 22.3048 4.23416C22.3251 3.95756 22.2491 3.74691 22.0489 3.58741C21.9698 3.50666 21.8766 3.44878 21.7693 3.41378C21.8677 3.32091 21.9845 3.34043 22.0985 3.3586C22.2247 3.37744 22.3319 3.44878 22.4615 3.52415C22.4005 3.32831 22.3109 3.18967 22.1487 3.10488C21.996 3.00124 21.8223 2.97028 21.6445 2.97432C21.5495 2.97701 21.5345 2.94605 21.5644 2.86462C21.6743 2.65262 21.8603 2.5261 22.0659 2.4016C21.7239 2.2845 21.4945 2.47361 21.2617 2.69031C21.2448 2.45476 21.316 2.27171 21.485 2.1001C21.1532 2.14317 20.9821 2.36391 20.8145 2.59609C20.7616 2.50524 20.7378 2.40092 20.6625 2.33093C20.522 2.14451 20.2927 2.05097 20.1468 2.12769C20.239 2.18086 20.2825 2.27373 20.3388 2.35718C20.3816 2.51264 20.4263 2.66743 20.4006 2.83703C20.2363 2.70512 20.0273 2.61628 19.8801 2.61628C19.8142 2.58869 19.7477 2.60215 19.6819 2.60417C19.6656 2.60417 19.6493 2.60821 19.6622 2.62705C19.669 2.63647 19.688 2.63849 19.7009 2.64388C19.8142 2.70243 19.9106 2.78722 20.011 2.86462C20.0735 2.95951 20.1624 3.03354 20.1929 3.14795C20.1725 3.14728 20.1501 3.14795 20.1311 3.14122C19.7504 2.97432 19.4356 3.12911 19.2327 3.41378C19.1777 3.4757 19.137 3.54636 19.0908 3.65539C19.2686 3.53627 19.4376 3.47906 19.6174 3.45282H19.8719Z" fill="#C1A02E"/>
<path d="M37.5112 24.2712L37.5383 24.3244L37.4358 23.8694L37.4691 23.8506C37.3449 23.1009 37.2119 22.3794 37.0829 21.6707C37.0796 21.2441 37.0762 20.8241 37.0714 20.3995L37.1019 20.4593C37.0463 19.3718 37.1033 19.361 37.0796 18.2102L37.0911 18.2869C37.1019 15.3668 37.0504 15.6071 37.0259 12.7112C37.028 12.7562 37.0395 12.7717 37.0429 12.8188C37.0307 12.6789 37.011 12.5234 37.0124 12.3652C37.0198 12.3255 37.0273 12.411 37.0307 12.4621C37.0483 12.2629 37.051 12.0025 37.0483 11.7313C37.0429 11.4661 37.0049 11.0616 37.0015 10.8167C36.7749 10.8221 36.5801 10.8422 36.4593 10.8261C36.2964 10.8315 36.2258 10.8557 36.3147 10.8732C34.1662 10.886 32.1507 10.8093 29.9615 10.8537C29.8556 10.847 29.5136 10.8537 29.5428 10.8348C27.6711 10.9264 22.9357 10.7009 21.0207 10.6861C20.9487 10.709 20.9609 10.8396 20.9345 10.8396C21.5513 10.8396 23.917 10.8254 24.4742 10.8698L24.4022 10.8914C24.8094 10.9069 24.4966 10.8779 24.9187 10.9075C25.0849 10.9264 24.8583 10.9176 24.9349 10.9196C25.7988 10.9102 27.7614 10.9654 28.5737 10.9095C28.7746 10.9593 29.4627 10.8806 29.7803 10.9277C30.0042 10.9089 30.2648 10.9715 30.351 10.9371C31.4565 10.9392 32.5742 10.9459 33.6946 10.9472C34.7743 10.9412 35.8268 10.925 36.9167 10.9196C36.9187 11.7454 36.9296 12.7132 36.9309 13.547C37.0232 15.0747 36.9153 15.6892 36.9459 17.5036C36.9418 17.5143 36.9384 17.5134 36.9357 17.5009C36.9581 18.0924 36.9696 17.237 36.9574 17.9417L36.9961 17.9316C36.9703 19.3745 36.9574 20.2043 36.952 21.6808C37.1234 22.6993 37.2938 23.7187 37.463 24.7389C37.2614 25.8346 37.0538 26.8959 36.84 27.9612L36.8278 28.4343C36.8597 28.7998 36.9235 29.2177 36.9615 29.5879C36.956 29.6242 36.9472 29.6215 36.9472 29.5407C36.9567 30.0717 36.9024 29.9587 36.9119 30.489C36.9031 30.4829 36.9031 30.4829 36.8956 30.3988C36.9201 30.8955 36.8515 32.5356 36.8943 33.1231L36.8787 33.1547L36.9004 31.203C36.8841 31.1956 36.8631 31.1828 36.8597 31.0671C36.8556 32.4313 36.8597 33.7019 36.8692 35.0869C36.88 36.4611 36.8916 37.2378 36.9024 38.6255C36.0831 38.6318 35.2627 38.6378 34.4411 38.6437L31.8576 38.6457L32.0204 38.6282L31.1613 38.6612C31.166 38.6511 31.2061 38.6457 31.2495 38.6423C30.1535 38.6087 29.0175 38.6639 27.9501 38.6551C27.9562 38.6457 28.117 38.6282 27.9684 38.6168C27.1798 38.6706 26.6994 38.5488 26.3051 38.6578C26.2678 38.6538 26.2426 38.6282 26.3234 38.6188C25.1881 38.6376 24.7578 38.6457 23.5852 38.6477C22.7016 38.8514 21.8183 39.0549 20.9351 39.2581C20.1099 39.0804 19.2662 38.9003 18.4039 38.7177C16.6761 38.7265 14.1578 38.7332 12.3974 38.7406L12.4049 38.7217C11.1698 38.7379 9.95234 38.7318 8.73828 38.7197L5.1443 38.6867L5.14023 36.9847C5.18095 33.7025 5.03776 32.7704 5.09205 29.46C5.13209 28.5245 5.11444 27.4551 5.09205 26.3871C4.90068 25.3944 4.70795 24.4071 4.57223 23.5215C4.64009 23.1345 4.70388 22.7489 4.75274 22.4117L4.76156 22.4703L4.81449 22.0059L4.84978 21.9998C4.96243 21.3443 5.0588 20.7144 5.15516 20.0852C5.14905 19.5575 5.1443 19.6497 5.13955 19.1248L5.17009 19.1847C5.11444 18.0944 5.17145 19.1887 5.14702 18.0359L5.15856 18.114C5.16466 16.6717 5.1538 16.5008 5.14023 15.1171C5.12394 13.7254 5.10902 12.2777 5.09273 10.8396L5.22506 10.8389C5.17891 10.8443 5.16941 10.8537 5.12598 10.8564C5.19565 10.851 5.26781 10.8445 5.34246 10.8369C5.41575 10.8292 5.48904 10.8256 5.56234 10.8261C5.60237 10.8335 5.52162 10.8429 5.47344 10.8456C6.05501 10.9015 7.19442 10.7951 7.55816 10.8375C7.72103 10.8315 7.79432 10.8093 7.70406 10.7904C9.85733 10.777 12.1504 10.8396 14.3444 10.7972C14.4496 10.8052 14.6762 10.7723 14.6477 10.7904C16.5227 10.7016 18.9325 10.8066 20.851 10.8221C20.925 10.7972 20.7044 10.7164 20.8931 10.6902C20.6746 10.6821 18.6747 10.6935 18.4751 10.7023C18.4826 10.6599 18.5763 10.1901 18.6835 9.84622C18.8117 9.44242 19.3119 8.37909 19.5664 8.34005L20.8225 10.8005L20.1228 12.1721C20.1059 12.2051 20.1174 12.2448 20.1479 12.2643C20.1778 12.2804 20.2158 12.2677 20.2328 12.2367L20.8951 10.9398L21.5581 12.2367C21.5737 12.2677 21.6124 12.2804 21.643 12.2643C21.6728 12.2448 21.6837 12.2051 21.6674 12.1721L20.9664 10.8005L22.2245 8.34005C22.479 8.37909 22.9785 9.44242 23.1061 9.84622C23.2187 10.2063 23.3158 10.709 23.3158 10.709C23.3158 10.709 23.6293 10.2372 23.9265 9.75469C24.3846 9.76478 24.4748 9.8166 24.8399 9.84016C24.8372 9.83949 24.8325 9.83747 24.8393 9.83545C25.1046 9.78632 26.5697 9.86573 26.7808 9.87381L26.8649 9.89467C26.9932 9.94245 27.4798 9.80449 27.3176 9.8839C28.419 9.86371 29.6812 9.86439 30.9109 9.86371C31.0833 9.8341 31.8528 9.86775 31.5841 9.80786C31.8935 9.87516 32.8076 9.89332 33.1476 9.88929C33.1361 9.89669 33.1218 9.90275 33.0682 9.90073C33.7278 9.98687 33.8493 9.82064 34.4682 9.92698C34.5653 9.85227 35.5907 9.9512 35.9415 9.86169C36.0184 9.87874 36.0428 9.89377 36.0148 9.90678L37.1162 9.91553C37.299 9.91822 37.4775 9.92047 37.6516 9.92226L37.9075 9.9263C37.9665 9.92697 37.9502 9.92698 37.955 9.92765L37.9624 9.92967L37.9597 9.93909C37.9597 9.98306 37.9593 10.0266 37.9584 10.0697L37.955 10.3826C37.9536 10.5798 37.9536 10.7622 37.9516 10.9358C38.014 11.7831 37.9244 12.9918 38.0106 13.7206C37.993 14.3263 37.955 15.3042 37.9916 16.1502L37.9808 16.0674C37.9855 17.0197 37.9896 16.9941 38.0432 17.6482C37.9618 17.9302 37.9774 17.733 37.9502 18.1449C37.9896 18.7809 37.9774 18.3468 38.0133 19.3179C37.9753 19.466 38.0289 19.5104 37.974 19.5602C37.9984 20.1679 38.014 20.8302 38.0242 21.4796C37.879 22.4003 37.7086 23.3923 37.5295 24.3748C37.5236 24.3398 37.5175 24.3053 37.5112 24.2712ZM38.0513 28.2762L38.0432 29.5131C38.0303 31.6829 38.0201 32.4117 38.0079 34.4401V36.8683L38.0201 38.3974C38.0265 38.8702 38.0335 39.3463 38.0412 39.8255L36.6303 39.8618C36.6364 39.8524 36.6011 39.8477 36.7165 39.8436C35.4108 39.8625 34.2212 39.8288 32.9915 39.8483L32.9956 39.8382C29.9438 39.9177 27.344 39.8288 24.4022 39.9129H23.9998C23.119 39.7238 22.2021 39.5287 21.2589 39.3274L23.5974 38.7783C25.281 38.7702 26.3444 38.7628 28.0573 38.7547L28.0485 38.7736C29.5625 38.7534 31.0493 38.7682 32.5362 38.785C33.2786 38.7917 34.0228 38.7991 34.7688 38.8072C35.1421 38.8077 35.5158 38.8088 35.8899 38.8106L37.0728 38.8045L37.0721 38.7466C37.0755 38.3227 37.0768 37.8919 37.0796 37.4626L37.0748 36.2054C37.0639 35.3655 37.0538 35.1273 37.0436 34.2786C37.0185 32.5827 36.9968 32.2058 37.0232 30.5469C37.0653 29.5811 37.0456 29.0811 37.0219 27.9801C37.18 26.9484 37.334 25.9234 37.5125 25.033C37.693 26.1118 37.8715 27.1947 38.0513 28.2762ZM20.4119 39.3779C19.793 39.5589 19.132 39.7258 18.4772 39.882C17.2258 39.8894 15.2083 39.8692 13.9643 39.921L13.9732 39.9015C11.4948 39.9708 8.86586 39.8968 6.29592 39.9089C5.865 39.9109 5.4904 39.9109 5.12123 39.9129C4.75885 39.9156 4.40257 39.919 4.00354 39.9237C4.00218 39.7723 4.00083 39.5764 4.00083 39.3705L4.0239 39.3402C3.93432 37.4377 4.1033 35.9477 4.00558 33.9623L4.03747 34.0996C3.98861 33.7914 4.05444 34.1131 3.97165 34.2302L3.99675 33.8809C3.8841 32.5302 4.04765 31.5315 3.97436 29.8766L3.9954 29.9863C3.97911 29.5481 3.9669 29.6424 3.98522 29.3166C3.98861 29.3671 3.99472 29.3442 4.00015 29.4479C4.04765 28.6261 4.03408 27.7412 4.01847 26.8615C4.1033 26.2821 4.18948 25.6878 4.2872 25.1145L4.29535 25.2854C4.33403 24.9132 4.42361 24.3822 4.51997 23.8304C4.65773 24.7107 4.79006 25.5923 4.90543 26.4039L4.89525 26.7444C4.92647 27.1126 4.99161 27.5278 5.02894 27.898C5.02215 27.935 5.01469 27.9316 5.01469 27.8509C5.02419 28.3792 4.9699 28.8738 4.9794 29.4021C4.97126 29.3987 4.97126 29.3987 4.96447 29.3126C4.98686 29.8093 4.919 29.7292 4.96243 30.3147L4.9475 30.3483L4.9665 30.7205C4.95225 30.7131 4.93054 30.6996 4.92647 30.5825C4.9224 32.224 4.92986 32.5605 4.94275 34.2295C4.95565 35.9665 4.9699 37.1052 4.98279 38.857L8.60459 38.8496L8.44376 38.8671L9.30018 38.8348C9.29611 38.8442 9.25471 38.8496 9.21468 38.8536C10.3066 38.8866 11.4378 38.8321 12.5033 38.8395C12.4978 38.8496 12.337 38.8678 12.4856 38.8785C13.2742 38.8274 13.7506 38.9472 14.1455 38.8361C14.1808 38.8415 14.2066 38.8671 14.1265 38.8759C15.3006 38.8557 17.2095 38.8496 18.3917 38.8489C19.1327 39.01 19.8736 39.1706 20.6142 39.3308C20.5472 39.3474 20.4798 39.3631 20.4119 39.3779ZM4.47926 22.8552C4.34557 21.8666 4.1983 20.8773 4.04358 19.9135C4.07208 17.0062 4.00694 18.26 3.94586 15.3109C3.95626 14.3768 3.95943 13.4438 3.95536 12.5119C3.94948 11.5648 3.94269 10.6199 3.935 9.6773L6.47847 9.67124C7.30639 9.67303 8.1282 9.68672 8.9439 9.71229C10.5312 9.64364 12.2814 9.79574 14.0458 9.77622L13.9833 9.75334C14.6172 9.82401 15.3942 9.65307 15.7898 9.75873L15.724 9.76277C16.0593 9.8166 16.4542 9.58577 16.6585 9.65038L16.7121 9.62413C17.1199 9.61605 16.7603 9.65374 17.0731 9.66383C17.1919 9.66181 17.1199 9.61605 17.3642 9.63153C17.4185 9.73921 17.3086 9.6073 17.3371 9.73046C17.1152 9.73046 17.6852 9.77622 17.1858 9.80382C17.295 9.81256 17.7164 9.81122 17.8827 9.78632C18.1637 10.2406 18.4527 10.6733 18.4751 10.707C18.1141 10.7211 17.7829 10.6794 17.4246 10.6518L17.4952 10.6316C17.088 10.6175 17.4124 10.6807 16.9896 10.6518C16.8241 10.6323 17.0317 10.6229 16.9557 10.6208C16.0891 10.6303 16.3293 10.5953 15.5136 10.6518C15.3121 10.602 14.5663 10.6989 14.246 10.6518C14.0227 10.6706 13.7981 10.6363 13.7119 10.6706C12.3065 10.6585 10.8468 10.6552 9.41894 10.6605C7.9538 10.6673 6.47847 10.7225 4.99976 10.7292V11.6371C5.09069 13.1681 4.98279 13.7866 5.01333 15.6057C5.00994 15.6171 5.00519 16.8312 5.00315 16.8191C5.02555 17.412 5.03708 17.06 5.02419 17.7674L5.06355 17.7593C5.0364 19.291 5.02419 18.5299 5.0208 20.073C4.84978 21.0785 4.68216 22.088 4.51183 23.0982C4.50007 23.0165 4.48921 22.9355 4.47926 22.8552ZM38.2142 21.4985C38.2407 18.5945 38.1755 18.6759 38.1151 15.7491C38.1307 14.535 38.1287 14.539 38.1206 13.331C38.1138 12.1431 38.1056 10.9587 38.0982 9.78497L36.4355 9.77892C35.8655 9.77219 35.2988 9.76007 34.7356 9.74258C33.1449 9.81122 31.388 9.65912 29.6195 9.67931L29.6826 9.70287C29.0474 9.63086 28.2683 9.8018 27.872 9.69546L27.9392 9.69075C27.6019 9.63691 27.1574 9.81862 26.9545 9.75401L26.8982 9.78094C26.491 9.78767 26.8507 9.75132 26.5358 9.73853C26.4171 9.74257 26.491 9.78767 26.244 9.77286C26.1911 9.66383 24.1491 9.74661 24.1213 9.62413C24.3439 9.62413 23.7718 9.57769 24.2712 9.55077C24.2319 9.54808 24.1511 9.54606 24.0548 9.54606C24.0704 9.52049 24.0873 9.49424 24.1002 9.46934C24.5339 8.7425 24.0765 8.02913 24.0765 8.02913L23.161 6.50749L23.3361 6.17637L23.389 6.20666C23.4325 6.23156 23.4861 6.21339 23.5085 6.1683C23.5316 6.12321 23.5153 6.06802 23.4725 6.04379L23.2526 5.91727C23.2112 5.89439 23.1576 5.91189 23.1339 5.95698C23.1115 6.0014 23.1278 6.05725 23.1698 6.08215L23.2228 6.11109L20.8951 10.6592L18.5674 6.11109L18.621 6.08215C18.6645 6.05725 18.6814 6.0014 18.6584 5.95698C18.6346 5.91189 18.5817 5.89439 18.5389 5.91727L18.3197 6.04379C18.2763 6.06802 18.26 6.12321 18.2838 6.1683C18.3068 6.21339 18.3598 6.23156 18.4032 6.20666L18.4555 6.17637L18.6292 6.50749L17.7124 8.02913C17.7124 8.02913 17.2557 8.7425 17.6893 9.46934C17.7232 9.52722 17.7583 9.58532 17.7945 9.64364L17.7762 9.65172C17.6357 9.61067 17.6703 9.63288 17.6201 9.60259C17.0785 9.59654 17.0059 9.53866 16.6184 9.51308C16.6225 9.51443 16.6273 9.5151 16.6211 9.51914C16.3572 9.56625 17.0399 9.53664 16.8302 9.53125L16.7467 9.50837C16.6171 9.46261 16.1312 9.5999 16.2954 9.51914C15.196 9.53933 13.9854 9.5898 12.7571 9.5898C12.5861 9.61942 11.8185 9.58711 12.0866 9.64566C11.7792 9.57971 10.8644 9.56154 10.5258 9.56356C10.54 9.55817 10.5536 9.55144 10.6072 9.55414C9.94759 9.46732 9.82679 9.63422 9.20857 9.52789C9.11424 9.60259 8.0902 9.50433 7.74071 9.59182C7.6647 9.57702 7.63824 9.56019 7.66606 9.54808C6.55719 9.53596 5.33092 9.52385 4.39103 9.51443L4.19355 9.52789C4.06597 9.53058 3.93545 9.53327 3.80199 9.53596C3.80199 9.7944 3.80267 10.0656 3.80471 10.3402L3.80063 10.9674C3.7986 11.3793 3.80267 11.7703 3.83999 12.0745C3.82303 12.6789 3.78638 13.6554 3.82031 14.4966L3.81013 14.4159C3.81488 15.3648 3.81963 15.3372 3.87392 15.9893C3.79181 16.2706 3.80674 16.6805 3.78027 17.0917C3.81963 17.7256 3.80742 17.2889 3.84271 18.258C3.80471 18.4054 3.85832 18.4484 3.80267 18.4989C3.82846 19.1463 3.84678 19.2022 3.85628 19.9317C4.05444 20.9991 4.2397 22.0806 4.41682 23.183L4.4555 23.4306L3.88071 26.8481L3.87392 28.2587C3.84949 33.1729 3.78435 34.9395 3.90378 39.7238C3.89632 39.7171 3.89089 39.7568 3.88682 39.6336L3.89089 40.0428L5.72588 40.0442C6.29389 40.0482 6.85443 40.0502 7.42311 40.0395L7.41972 40.0502C10.4776 39.9715 14.4848 40.0603 17.4335 39.9755L18.488 39.9775L20.9372 39.4015C21.0896 39.4356 21.2412 39.469 21.3919 39.5017C22.2306 39.6357 23.0959 39.8133 23.9917 40.0051C25.0639 40.0051 25.429 40.0112 26.4659 39.9681L26.4557 39.9883C28.9286 39.919 31.5515 39.9924 34.114 39.9796C35.1781 39.9863 35.8981 39.9634 36.9662 39.9614L36.9934 39.9863C37.3781 39.9681 37.746 39.9601 38.1674 39.9601C38.1647 38.3785 38.2515 37.3744 38.1755 35.805L38.2067 35.9409C38.1579 35.634 38.2244 34.743 38.1416 34.8608L38.166 34.5101C38.0554 33.1641 38.2183 34.4926 38.145 32.8418L38.166 32.9522C38.1491 32.514 38.1382 30.8921 38.1552 30.5664C38.1599 30.6189 38.166 30.5947 38.1687 30.6983C38.2257 29.7339 38.1993 29.3045 38.1789 28.2647C38.0982 27.828 38.0194 27.4013 37.9489 26.9739L38.012 27.1294C37.8763 26.5459 37.7304 25.5304 37.5844 24.6831L37.6177 24.533C37.8308 23.5154 38.0269 22.5153 38.2142 21.4985Z" fill="#C1A02E"/>
<path d="M16.6186 9.41656C16.6071 9.40849 16.5243 9.41051 16.4795 9.40849L16.6186 9.41656Z" fill="#003C4C"/>
<path d="M19.2685 32.3596C19.2074 32.258 19.1422 32.1496 19.0309 31.9572C18.9319 32.1846 18.8667 32.3488 18.7907 32.5077C18.7486 32.5972 18.6971 32.7318 18.6306 32.7459C18.5552 32.7641 18.4317 32.6914 18.3693 32.6214C18.0307 32.2365 17.9804 32.2257 17.5834 32.5447C17.4812 32.6268 17.3817 32.7111 17.2849 32.7977C16.6578 33.3536 15.9704 33.7857 15.135 33.9176C15.0501 33.9317 14.9728 33.9869 14.8174 34.0576C14.9809 34.1134 15.0644 34.1592 15.1526 34.1713C15.8238 34.2615 16.4481 34.1807 16.9571 33.6484C17.084 33.5172 17.2475 33.4216 17.3887 33.3011C17.6187 33.0992 17.8142 33.114 18.0259 33.3496C18.3184 33.6827 18.5152 33.6646 18.8308 33.3469C18.9149 33.2628 19.0384 33.2056 19.1538 33.1753C19.6329 33.0474 20.0848 32.1826 19.8799 31.6604C19.6057 31.8596 19.7204 32.3811 19.2685 32.3596Z" fill="#003C4C"/>
<path d="M22.6332 33.3353C22.5911 33.7532 22.7309 33.9525 23.1319 33.9316C24.1417 33.8751 24.8081 33.266 25.3144 32.4248C25.4189 32.2531 25.4725 32.0486 25.5492 31.8594C23.7318 32.9854 23.7061 32.9961 23.1889 32.7936C23.4068 32.4739 23.6484 32.1757 23.8248 31.8399C23.9673 31.568 24.0922 31.2571 24.1173 30.9556C24.1519 30.5464 23.89 30.3876 23.5133 30.5121C22.8999 30.7153 22.6461 31.1165 22.6915 31.7935C22.9284 31.6764 23.174 31.5573 23.4217 31.4368C23.4448 31.4749 23.4688 31.5135 23.4937 31.5526C23.398 31.6905 23.3152 31.8393 23.2052 31.9644C22.8632 32.3554 22.6861 32.8117 22.6332 33.3353Z" fill="#003C4C"/>
<path d="M18.1836 14.4795C18.3451 14.3361 18.4774 14.1565 18.6233 13.9909C18.9409 14.176 19.1106 14.1733 19.3372 13.9747C19.7288 13.6315 19.9833 12.6429 19.7899 12.0204C19.6969 12.1624 19.6114 12.2525 19.5741 12.3629C19.5171 12.5339 19.5123 12.7216 19.4478 12.8885C19.4159 12.9753 19.3094 13.0299 19.2361 13.0998C19.1818 13.0184 19.1058 12.9417 19.0787 12.8508C19.0413 12.7162 19.04 12.5709 19.0223 12.4302L18.9199 12.4046C18.8635 12.517 18.7957 12.6254 18.7502 12.7418C18.6871 12.9087 18.6796 13.1234 18.5717 13.2425C18.4435 13.3839 18.2277 13.5218 18.058 13.5131C17.9555 13.507 17.8286 13.2311 17.7811 13.0568C17.7336 12.8784 17.7716 12.6765 17.7716 12.4847C17.4859 13.0278 17.302 13.6006 17.3821 14.219C17.4289 14.5845 17.8999 14.7298 18.1836 14.4795Z" fill="#003C4C"/>
<path d="M17.4656 16.318C19.0068 15.8698 20.5561 15.4768 22.1047 15.2284C22.7704 15.1221 23.2265 14.8616 23.5726 14.3421L23.5875 14.3071C23.4653 14.2519 23.3493 14.3024 23.2414 14.3192C21.5672 14.6032 19.8992 14.9962 18.2305 15.4101C17.748 15.5306 17.4351 15.7157 17.2831 16.137C17.2573 16.209 17.1433 16.2857 17.1949 16.353C17.2614 16.4405 17.3801 16.3436 17.4656 16.318Z" fill="#003C4C"/>
<path d="M20.1331 30.3723C20.0116 30.3164 19.8962 30.3662 19.7877 30.3858C18.1142 30.6684 16.4461 31.0601 14.7767 31.4753C14.2942 31.5958 13.98 31.7795 13.83 32.2008C13.8036 32.2735 13.6896 32.3502 13.7405 32.4182C13.8077 32.505 13.9271 32.4061 14.0112 32.3825C15.5531 31.9363 17.1024 31.5406 18.651 31.293C19.316 31.188 19.7721 30.9262 20.1202 30.4073C20.1249 30.3992 20.127 30.3885 20.1331 30.3723Z" fill="#003C4C"/>
<path d="M32.165 22.4622C32.2254 22.5221 32.2464 22.4447 32.2763 22.4225C32.8267 22.0106 33.3974 21.6357 34.019 21.3686C34.2884 21.2528 34.4065 21.0381 34.3868 20.6464C34.3859 20.6402 34.3841 20.6314 34.3814 20.6202C34.3067 20.5899 34.2708 20.6303 34.228 20.6491C33.5623 20.9533 32.9359 21.3322 32.3157 21.7286C32.1365 21.8417 32.0564 21.9924 32.1318 22.3027C32.1447 22.3572 32.1189 22.4178 32.165 22.4622Z" fill="#003C4C"/>
<path d="M27.7697 23.1169C27.7643 23.1021 27.7914 23.0597 27.8111 23.0536C27.9373 23.0105 28.0242 23.0839 28.1009 23.1741C28.13 23.2077 28.1484 23.2508 28.206 23.3484L28.0065 23.2919C27.9068 23.2616 27.807 23.2313 27.7697 23.1169ZM27.7554 24.123C27.3686 24.4608 26.9777 24.794 26.5645 25.15C27.2438 25.1372 27.6713 24.8956 28.0581 24.3397C28.1239 24.2482 28.1456 24.012 28.3574 24.1546C28.4266 24.2011 28.4985 24.2933 28.5616 24.1641C28.6275 24.0274 28.8331 23.9036 28.6879 23.734C28.5311 23.551 28.5257 23.382 28.5793 23.1599C28.6437 22.8941 28.4517 22.5697 28.2054 22.4742C27.9258 22.3658 27.7588 22.5401 27.6279 22.7575C27.5525 22.88 27.4901 23.0126 27.4365 23.1472C27.2845 23.516 27.3517 23.7125 27.7208 23.8558C27.9482 23.9433 27.8694 24.0241 27.7554 24.123Z" fill="#003C4C"/>
<path d="M28.6362 12.9059C28.6308 12.8905 28.6566 12.8487 28.6769 12.842C28.8031 12.7996 28.8907 12.8743 28.9674 12.9625C28.9965 12.9968 29.0142 13.0419 29.0712 13.1374L28.8724 13.0809C28.7733 13.0513 28.6728 13.021 28.6362 12.9059ZM28.6213 13.9134C28.2344 14.2506 27.8442 14.5844 27.4316 14.9391C28.1103 14.9276 28.5385 14.6847 28.9253 14.1288C28.9898 14.0372 29.0122 13.8024 29.2232 13.9437C29.2938 13.9908 29.3644 14.083 29.4275 13.9531C29.4933 13.8172 29.6996 13.6933 29.555 13.5231C29.3969 13.34 29.3922 13.1711 29.4444 12.949C29.5103 12.6839 29.3175 12.3595 29.0712 12.2632C28.7916 12.1549 28.6253 12.3285 28.4937 12.5479C28.4184 12.6697 28.3559 12.8016 28.3016 12.9369C28.151 13.3064 28.2182 13.5029 28.5873 13.6462C28.8147 13.733 28.7353 13.8138 28.6213 13.9134Z" fill="#003C4C"/>
<path d="M7.46441 14.9323C7.76029 14.9943 8.10571 14.8314 8.31744 14.5232C8.40114 14.3998 8.47714 14.2733 8.54546 14.1436C8.59025 14.0588 8.73344 13.9592 8.61943 13.8778C8.48099 13.7782 8.41991 13.9343 8.34119 13.9942C8.1885 14.1086 8.02088 14.1416 7.84037 14.0628C7.67411 13.9901 7.67139 13.8555 7.68497 13.7196C7.7189 13.3764 8.26179 12.6381 8.62893 12.3999C8.69815 12.3548 8.77958 12.2976 8.70833 12.2289C8.62554 12.1515 7.80169 12.8117 7.33683 13.371C7.12646 13.6254 6.9887 13.9033 6.99549 14.219C6.98599 14.6046 7.16039 14.8691 7.46441 14.9323Z" fill="#003C4C"/>
<path d="M24.9367 14.8137C25.2326 14.8763 25.5773 14.7128 25.7891 14.4046C25.8725 14.2814 25.9513 14.1549 26.0184 14.025C26.0632 13.9402 26.2051 13.8406 26.0917 13.7585C25.9526 13.6582 25.8929 13.8157 25.8135 13.8756C25.6601 13.99 25.4932 14.0243 25.3113 13.9449C25.1464 13.8722 25.143 13.7383 25.1566 13.601C25.1912 13.2571 25.7341 12.5182 26.1012 12.2826C26.1711 12.2369 26.2512 12.179 26.1793 12.111C26.0985 12.0316 25.2747 12.6931 24.8078 13.2531C24.5988 13.5068 24.4617 13.7854 24.4671 14.101C24.4583 14.4853 24.6327 14.7498 24.9367 14.8137Z" fill="#003C4C"/>
<path d="M29.2836 30.7661C29.3521 30.721 29.4349 30.6631 29.3623 30.5945C29.2809 30.5171 28.457 31.1779 27.9908 31.7365C27.7805 31.9916 27.6447 32.2695 27.6488 32.5852C27.6393 32.9708 27.8137 33.2353 28.1184 33.2979C28.4156 33.3605 28.7597 33.1969 28.9714 32.8894C29.0551 32.7651 29.1311 32.6386 29.1995 32.5098C29.2449 32.423 29.3881 32.3241 29.2734 32.2426C29.1363 32.143 29.0753 32.2992 28.9945 32.3604C28.8418 32.4741 28.6749 32.5071 28.4944 32.429C28.3267 32.3557 28.3261 32.2211 28.339 32.0851C28.3736 31.7433 28.9158 31.0043 29.2836 30.7661Z" fill="#003C4C"/>
<path d="M32.4761 18.4084C32.3152 18.6029 32.2114 18.8163 32.2141 19.0592C32.2073 19.354 32.341 19.5572 32.5738 19.605C32.8018 19.6535 33.0658 19.529 33.2287 19.2921C33.2933 19.1978 33.3522 19.1009 33.4051 19.0013C33.4383 18.9347 33.549 18.8593 33.4601 18.7961C33.3549 18.7193 33.3087 18.8398 33.2477 18.8849C33.1296 18.9737 33.002 19.0007 32.8615 18.9381C32.7353 18.8829 32.7333 18.7799 32.7441 18.6749C32.7692 18.4111 33.1859 17.8451 33.4675 17.6641C33.5218 17.6291 33.5836 17.5853 33.5286 17.5315C33.4655 17.4709 32.833 17.979 32.4761 18.4084Z" fill="#003C4C"/>
<path d="M33.5957 23.6841C33.6656 23.6396 33.747 23.5818 33.6744 23.5118C33.593 23.4344 32.7685 24.0953 32.3029 24.6545C32.0926 24.9089 31.9568 25.1875 31.9602 25.5038C31.9521 25.8881 32.1272 26.1526 32.4305 26.2152C32.7278 26.2778 33.0725 26.1156 33.2842 25.8074C33.3693 25.6844 33.4451 25.5579 33.5116 25.4278C33.5584 25.3423 33.7009 25.2427 33.5855 25.1606C33.4485 25.0617 33.3867 25.2171 33.308 25.2777C33.1553 25.3928 32.9863 25.4264 32.8065 25.3464C32.6395 25.2743 32.6375 25.1397 32.6524 25.0031C32.6864 24.6586 33.2279 23.921 33.5957 23.6841Z" fill="#003C4C"/>
<path d="M7.46441 24.6973C7.76029 24.7585 8.10571 24.5957 8.31744 24.2888C8.40114 24.1649 8.47714 24.0384 8.54546 23.9092C8.59025 23.8237 8.73344 23.7248 8.61943 23.642C8.48099 23.5411 8.41991 23.6992 8.34119 23.7591C8.1885 23.8735 8.02088 23.9065 7.84037 23.8278C7.67411 23.7551 7.67139 23.6212 7.68497 23.4839C7.7189 23.1413 8.26179 22.4017 8.62893 22.1655C8.69815 22.1204 8.77958 22.0625 8.70833 21.9945C8.62554 21.9151 7.80169 22.576 7.33683 23.1359C7.12646 23.3897 6.9887 23.669 6.99549 23.9839C6.98599 24.3689 7.16039 24.6334 7.46441 24.6973Z" fill="#003C4C"/>
<path d="M35.1566 34.4545C35.2251 34.4101 35.3073 34.3508 35.2346 34.2842C35.1532 34.2048 34.3287 34.865 33.8625 35.4249C33.6521 35.6793 33.5164 35.958 33.5218 36.2749C33.513 36.6585 33.6874 36.9237 33.9907 36.987C34.288 37.0489 34.6327 36.8853 34.8451 36.5778C34.9293 36.4544 35.0046 36.3281 35.0711 36.1989C35.1179 36.1134 35.2598 36.0131 35.1457 35.931C35.0087 35.8314 34.9462 35.9869 34.8682 36.0495C34.7148 36.1625 34.5472 36.1969 34.3667 36.1168C34.1997 36.0448 34.1977 35.9102 34.2113 35.7742C34.2466 35.431 34.7888 34.6927 35.1566 34.4545Z" fill="#003C4C"/>
<path d="M35.2443 33.1508C35.2443 33.1508 35.321 32.9388 35.1534 32.7141C34.9851 32.4873 34.6085 32.7141 34.6085 32.7141C33.5016 33.2195 32.5984 34.0802 32.5984 34.0802C31.8472 34.2303 30.9405 33.0082 30.9405 33.0082C31.3938 32.0781 33.4623 32.3796 33.4623 32.3796C33.5722 31.2281 32.5645 30.8108 32.5645 30.8108C31.4441 30.7678 30.5564 31.4663 29.9667 32.9119C29.3763 34.3548 30.4797 34.9834 30.4797 34.9834H27.7619C27.6187 34.9834 27.0004 34.5231 27.0948 33.7962C27.1884 33.0707 27.052 32.8756 27.052 32.8756C26.1542 33.6731 26.3585 34.9834 26.3585 34.9834H13.6669C12.6849 34.9834 12.5757 34.9403 12.2133 34.4699C11.6046 33.6818 11.3487 32.6643 11.1736 31.9428C10.9992 31.2207 10.7373 31.5269 10.7373 31.5269C10.7373 31.5269 10.1564 32.5633 10.0376 32.8648C9.91682 33.165 10.8119 34.9571 10.8119 34.9571H8.23655C7.49889 34.9571 7.58304 34.342 7.6129 33.8756C7.64276 33.4093 7.16162 33.3803 7.16162 33.3803C7.16162 33.3803 7.01639 34.2391 6.87253 35.4343C6.72662 36.6302 7.56472 36.8173 7.56472 36.8173H10.0777C10.2921 36.8173 10.6416 36.2062 10.6416 36.2062C10.795 36.0905 11.1797 35.4619 11.1797 35.4619C11.6059 36.2231 12.4019 36.8173 12.4019 36.8173H26.3171L26.7602 36.3381C27.0344 37.0643 27.901 36.8173 27.901 36.8173C27.901 36.8173 28.8334 36.7978 30.1078 36.8173C31.3803 36.8348 31.8981 36.6841 31.8981 36.6841C32.8461 34.9915 34.3933 34.48 34.6587 34.2835C34.9254 34.0897 35.2443 33.1508 35.2443 33.1508Z" fill="#003C4C"/>
<path d="M34.1676 19.6802C34.0747 19.9043 34.2226 20.1445 34.3902 20.1445C34.416 20.1445 34.4907 20.0611 34.4907 20.0611C34.4907 20.0611 35.0064 19.5119 35.1903 18.6114C35.3464 17.8382 35.1258 12.7793 35.1258 12.7793C35.1258 12.7793 35.0621 12.2422 34.7831 12.2422C34.6243 12.2422 34.2721 13.0222 34.1127 13.3426C34.072 13.4253 34.0516 13.5438 34.0563 13.6622C34.0998 14.5466 34.2864 18.3389 34.3081 18.5913C34.3258 18.7925 34.2959 19.378 34.1676 19.6802Z" fill="#003C4C"/>
<path d="M14.9954 17.438C16.335 16.9009 16.2203 18.4064 16.2203 18.4064H13.7698L14.9954 17.438ZM24.9121 17.438C26.253 16.9009 26.1384 18.4064 26.1384 18.4064H23.6872L24.9121 17.438ZM6.99716 19.1185C6.92251 21.8104 8.91087 21.8602 10.3238 21.1846C11.3152 20.7114 11.8737 19.7242 11.8737 19.7242C12.0827 20.0842 12.2911 20.1367 12.2911 20.1367C12.2911 20.1367 14.2034 20.1502 14.4165 20.1367C14.6303 20.1232 14.8095 19.7962 14.8095 19.7962C14.7626 20.1071 14.9255 20.1367 14.9255 20.1367C14.9255 20.1367 17.6481 20.1502 18.0472 20.1367C18.4448 20.1232 18.4855 19.7484 18.4855 19.7484C18.4631 20.1071 18.7176 20.1502 18.7176 20.1502H20.8668C21.2428 20.1502 21.2597 19.7484 21.2597 19.7484C21.2828 20.0122 21.5149 20.1502 21.5149 20.1502L21.9954 20.1407C21.8563 20.6886 21.8149 21.0661 21.8149 21.0661C22.3001 21.233 22.4168 20.1502 22.4168 20.1502H25.4224C26.8835 20.1502 28.0114 18.1917 27.5479 16.8754C27.2533 16.0388 27.1332 14.9163 24.9352 16.162C23.9654 16.7125 23.5718 17.3424 22.691 18.3021H21.9757C21.5828 18.0767 21.3758 16.4662 21.3758 16.4662C20.4522 16.8256 20.6354 18.3782 20.6354 18.3782H19.4098C18.9823 18.3277 18.8391 18.0087 18.8059 17.4945C18.7699 16.938 18.6939 16.7973 18.6939 16.7973C18.1157 17.1769 17.9773 18.3782 17.9773 18.3782H16.8915C18.1863 17.1277 15.9889 15.5314 15.2268 15.7979C14.4634 16.0658 12.5442 18.1668 12.5442 18.1668C11.8561 17.9575 11.7937 16.5301 11.7584 16.162C11.7244 15.7945 11.4116 15.8457 11.4116 15.8457L10.6251 17.3424L11.0417 19.1185C10.5559 19.7107 9.07646 19.533 9.07646 19.533C6.76575 19.175 8.66182 16.4729 8.79958 16.162C8.93802 15.8517 8.75343 15.8457 8.75343 15.8457C7.18107 16.6869 6.99716 19.1185 6.99716 19.1185Z" fill="#003C4C"/>
<path d="M18.2614 23.1039L19.1768 24.0979L20.547 22.9209L19.4354 21.7963L18.3231 22.7674L17.3622 21.7963L16.043 22.9464L17.105 24.0979L18.2614 23.1039Z" fill="#003C4C"/>
<path d="M13.7379 13.6794C14.0048 13.7041 14.2665 13.7467 14.523 13.8073C14.3774 13.9616 14.1437 14.1191 13.822 14.2797C13.1972 14.6046 12.8179 14.8323 12.684 14.9628C13.0405 14.9619 13.4031 14.9599 13.7718 14.9568C14.2835 14.7665 14.7427 14.4278 15.1494 13.9406C15.5566 13.4555 15.7991 12.9571 15.8769 12.4452C15.5192 12.3368 15.1474 12.2675 14.7565 12.2298C14.1548 12.1728 13.6089 12.2107 13.119 12.3435C13.0192 12.4512 12.8475 12.6262 12.6012 12.8631C12.2782 13.2104 12.1051 13.5385 12.082 13.8477C12.5838 13.679 13.1357 13.6229 13.7379 13.6794Z" fill="#003C4C"/>
<path d="M12.2338 24.3625C12.5907 24.3598 12.9527 24.358 13.3196 24.3571C13.8326 24.166 14.2925 23.8273 14.6992 23.3409C15.1064 22.8555 15.3491 22.3559 15.4274 21.8422C15.0709 21.7376 14.6976 21.6667 14.3076 21.6295C13.705 21.5725 13.1587 21.6102 12.6688 21.7425C12.5688 21.8516 12.3955 22.0248 12.1489 22.2621C11.8268 22.6103 11.6545 22.9385 11.6318 23.2467C12.1327 23.0778 12.6864 23.0239 13.2863 23.0778C13.5541 23.1042 13.8161 23.1471 14.0722 23.2063C13.9283 23.3604 13.6928 23.5199 13.3698 23.6788C12.7455 24.0052 12.3675 24.2313 12.2338 24.3625Z" fill="#003C4C"/>
<path d="M9.26159 30.7141C11.1237 30.702 11.7107 29.4045 11.7107 29.4045H15.0109C15.2335 29.4045 15.3319 28.8486 15.4031 29.1265C15.4778 29.4072 15.8028 29.3298 15.8028 29.3298C15.8028 29.3298 16.5045 29.4045 17.0087 29.3298C17.5129 29.2564 17.5489 28.9879 17.5489 28.9879C17.6093 29.3554 17.9283 29.4045 17.9283 29.4045H18.9319C19.1919 29.4045 19.2631 28.9361 19.2631 28.9361C19.2509 29.3809 19.6425 29.4045 19.6425 29.4045H24.0739C24.9466 29.4045 24.8699 29.2026 25.0789 28.7719C25.2866 28.3391 25.7039 28.3014 25.7039 28.3014C25.7772 29.1898 26.3642 29.3419 26.3642 29.3419H29.9561C29.9561 29.3419 30.0878 29.2416 30.5174 28.7584C30.9463 28.2765 32.0857 29.0761 32.0857 29.0761L32.6605 27.5908C32.5512 27.0968 30.9829 26.1687 30.9829 26.1687V24.102C30.9829 24.102 31.6907 23.2439 31.8536 23.0117C32.0178 22.7782 31.8298 22.4094 31.5475 22.4134C31.1329 22.4208 30.9463 22.1065 30.9463 22.1065C30.9463 22.1065 30.9897 21.6933 31.0318 21.3656C31.1444 20.4772 30.6775 20.9288 30.6775 20.9288C30.6775 20.9288 30.0864 21.6906 29.8177 22.0332C29.2741 22.7311 29.9534 23.3031 29.9534 23.3031C29.9534 23.3031 29.9304 26.0927 29.9534 26.9945C29.9785 27.8963 29.6229 27.8694 29.6229 27.8694H27.2966C26.9275 27.8741 27.2104 27.65 27.2104 27.65H27.7744L28.1164 26.4992C27.528 26.3982 25.9564 25.9399 25.7358 25.7306C25.5146 25.5193 24.614 24.4297 24.0236 24.7729C23.4373 25.1162 22.112 26.5079 21.9667 26.6647C21.7475 26.9507 22.0869 27.1553 22.0869 27.1553C22.0869 27.1553 23.5961 26.0927 24.0983 26.3605C24.6011 26.6264 25.0423 27.2738 25.0423 27.2738C24.857 27.6809 24.0739 27.65 24.0739 27.65H21.9674C21.9674 27.65 20.0998 27.6426 19.9587 27.65C19.7531 27.6601 19.6757 27.2415 19.6757 27.2415L19.5169 26.3935L19.1491 25.8585C19.1491 25.8585 18.839 25.909 18.5974 26.5113L18.3999 27.0039L18.5282 27.7301C17.9147 27.6675 17.8543 26.7287 17.8543 26.7287L17.4872 26.0032C17.0583 26.1183 16.8377 26.9568 16.8377 26.9568V27.7186C16.8377 27.7186 16.5873 27.6836 16.474 27.5477C16.3593 27.4124 16.3478 26.9689 16.3478 26.9689L15.9433 26.1055C15.5646 26.3605 15.3916 27.0712 15.3916 27.0712V27.65H12.0555C11.7983 26.9521 11.197 25.8598 11.0138 25.9406C10.7104 26.0718 10.3759 27.3882 10.3759 27.3882L11.0009 28.5175C8.85781 29.3856 8.10996 28.5552 7.68175 27.973C7.25422 27.3882 8.18665 26.1936 8.15883 25.8901C8.13643 25.6472 7.96338 25.7885 7.96338 25.7885C5.37851 28.6817 7.40148 30.7276 9.26159 30.7141Z" fill="#003C4C"/>
<path d="M31.1291 14.4489L31.2248 17.6617C31.2248 17.6617 30.2978 18.1342 28.9338 18.6557C27.5698 19.178 25.7918 22.1849 24.2893 22.6924C23.5062 22.9575 24.2893 20.8928 24.2893 20.8928C23.9201 21.4305 22.6654 22.9427 23.7566 24.0949C25.0684 25.4792 27.282 20.8982 29.1211 20.2137C31.4902 19.3348 31.5994 18.8051 31.7338 18.5386C32.274 17.4605 32.1573 15.2289 32.1573 15.2289C32.1573 15.2289 32.8657 14.389 33.0279 14.1648C33.1922 13.9347 33.0042 13.5753 32.7219 13.5814C32.3066 13.5888 32.1193 13.2812 32.1193 13.2812C32.1193 13.2812 32.164 12.8767 32.2068 12.5584C32.3194 11.6889 31.8512 12.1317 31.8512 12.1317C31.8512 12.1317 31.2615 12.8767 30.9934 13.2105C30.4485 13.8896 31.1291 14.4489 31.1291 14.4489Z" fill="#003C4C"/>
<path d="M8.65216 30.9869C8.1812 31.0448 6.58101 32.203 7.31799 32.9002C7.94708 33.4951 8.45265 32.7313 8.5843 32.2905C8.59652 32.2474 8.53816 32.2212 8.51169 32.2588C8.39089 32.4291 8.20835 32.5704 8.02308 32.2676C7.70956 31.7507 8.65216 30.9869 8.65216 30.9869Z" fill="#003C4C"/>
<path d="M34.1676 29.3115C34.0747 29.5356 34.2226 29.7752 34.3902 29.7752C34.416 29.7752 34.4907 29.6931 34.4907 29.6931C34.4907 29.6931 35.0064 29.1439 35.1903 28.2421C35.3464 27.4695 35.1258 22.4106 35.1258 22.4106C35.1258 22.4106 35.0621 21.8722 34.7831 21.8722C34.6243 21.8722 34.2721 22.6549 34.1127 22.9746C34.072 23.058 34.0516 23.1751 34.0563 23.2929C34.0998 24.1779 34.2864 27.9709 34.3081 28.2226C34.3258 28.4231 34.2959 29.0086 34.1676 29.3115Z" fill="#003C4C"/>
<path d="M21.7038 24.6013L21.3882 24.4849C21.2328 24.4263 21.2219 24.4162 21.1867 24.357L21.1677 24.3281C21.1425 24.289 21.1208 24.2567 21.1242 24.2076C21.129 24.1114 21.2097 23.9566 21.2437 23.8913C21.255 23.8949 21.2647 23.8976 21.2728 23.8994C21.3102 23.9014 21.3278 23.8758 21.3353 23.8644C21.3387 23.8637 21.3685 23.8725 21.3977 23.8873C21.4995 23.9505 21.7798 24.359 21.7669 24.4284C21.7594 24.4849 21.7234 24.5609 21.7038 24.6013ZM22.1116 22.7701C22.1116 22.7701 22.0431 22.7351 21.9813 22.721C21.866 22.694 21.3156 23.1954 21.1534 23.4054C21.0591 23.5272 20.9729 23.6268 20.8969 23.7143C20.6444 24.0057 20.4924 24.1807 20.565 24.6356C20.5997 24.8571 20.7713 25.0441 21.0374 25.1424C21.2905 25.2373 21.5843 25.2333 21.7825 25.133C22.1557 24.9466 22.4706 24.3288 22.2942 23.9283C22.1869 23.684 21.9148 23.363 21.8409 23.2769L22.1483 22.7889L22.1116 22.7701Z" fill="#003C4C"/>
</svg>
